<?xml version="1.0" standalone="no"?><!DOCTYPE svg PUBLIC "-//W3C//DTD SVG 1.1//EN" "http://www.w3.org/Graphics/SVG/1.1/DTD/svg11.dtd"><svg t="1621691301350" class="icon" viewBox="0 0 1024 1024" version="1.1" xmlns="http://www.w3.org/2000/svg" p-id="2126" xmlns:xlink="http://www.w3.org/1999/xlink" width="200" height="200"><defs><style type="text/css"></style></defs><path d="M791.9 412.3H231V284.7c0-21.8 17.7-39.5 39.5-39.5h482c21.8 0 39.5 17.7 39.5 39.5v127.6z" fill="#FFFFFF" p-id="2127"></path><path d="M752.5 263.4c11.7 0 21.3 9.6 21.3 21.3v109.5H249.2V284.7c0-11.7 9.6-21.3 21.3-21.3h482m0-18.2h-482c-21.8 0-39.5 17.7-39.5 39.5v127.7h561V284.7c-0.1-21.8-17.7-39.5-39.5-39.5z" p-id="2128"></path><path d="M647.4 217.5v73.3c0 9.3-7.8 16.8-17.4 16.8s-17.4-7.5-17.4-16.8v-73.2c-0.1-9.3 7.7-16.8 17.3-16.9s17.4 7.5 17.5 16.8zM416.3 217.8V291c0 9.3-7.8 16.8-17.4 16.8s-17.4-7.5-17.4-16.8v-73.2c0-9.3 7.8-16.8 17.4-16.8s17.4 7.5 17.4 16.8" p-id="2129"></path><path d="M750.6 795.6H272.3c-22.8 0-41.3-18.5-41.3-41.3V395.1h561v359.2c-0.1 22.8-18.5 41.3-41.4 41.3z" fill="#99E5E2" p-id="2130"></path><path d="M773.5 413.5v340.7c0 12.6-10.3 22.9-22.9 22.9H272.3c-12.6 0-22.9-10.3-22.9-22.9V413.5h524.1m18.4-18.4H231v359.2c0 22.8 18.5 41.3 41.3 41.3h478.4c22.8 0 41.3-18.5 41.3-41.3V395.1h-0.1z" p-id="2131"></path><path d="M513.2 485c-18.2 0.7-32.5 15.6-32.4 33.8 0.7 18 15.8 32 33.8 31.4 18-0.7 32.1-15.8 31.4-33.8-0.7-17.6-15.2-31.5-32.8-31.4z" fill="#FFFFFF" p-id="2132"></path><path d="M513.4 496c11.7 0 21.1 9.2 21.6 20.8 0.2 5.8-1.8 11.3-5.8 15.5-3.9 4.2-9.3 6.7-15 6.9h-0.8c-11.6 0-21.1-9.1-21.6-20.6-0.1-12.2 9.4-22 21.6-22.6m-0.1-11h-0.2c-18.2 0.7-32.5 15.6-32.4 33.8 0.7 17.6 15.1 31.4 32.6 31.4h1.2c18-0.7 32.1-15.8 31.4-33.8-0.6-17.5-15-31.4-32.6-31.4z" p-id="2133"></path><path d="M664 485c-18.2 0.7-32.5 15.6-32.4 33.8 0.7 18 15.8 32 33.8 31.4 18-0.7 32.1-15.8 31.4-33.8-0.7-17.6-15.2-31.5-32.8-31.4z" fill="#FF9999" p-id="2134"></path><path d="M664.2 496c11.7 0 21.1 9.2 21.6 20.8 0.2 5.8-1.8 11.3-5.8 15.5-3.9 4.2-9.3 6.7-15 6.9h-0.8c-11.6 0-21.1-9.1-21.6-20.6 0-12.2 9.5-22 21.6-22.6m0-11h-0.2c-18.2 0.7-32.5 15.6-32.4 33.8 0.7 17.6 15.1 31.4 32.6 31.4h1.2c18-0.7 32.1-15.8 31.4-33.8-0.7-17.5-15.1-31.4-32.6-31.4z" p-id="2135"></path><path d="M362.3 485c-18.2 0.7-32.5 15.6-32.4 33.8 0.7 18 15.8 32 33.8 31.4 18-0.7 32.1-15.8 31.4-33.8-0.7-17.6-15.2-31.5-32.8-31.4z" fill="#FFFFFF" p-id="2136"></path><path d="M362.5 496c11.7 0 21.1 9.2 21.6 20.8 0.2 5.8-1.8 11.3-5.8 15.5-3.9 4.2-9.3 6.7-15 6.9h-0.8c-11.6 0-21.1-9.1-21.6-20.6 0-12.2 9.5-22 21.6-22.6m0-11h-0.2c-18.2 0.7-32.5 15.6-32.4 33.8 0.7 17.6 15.1 31.4 32.6 31.4h1.2c18-0.7 32.1-15.8 31.4-33.8-0.7-17.5-15.1-31.4-32.6-31.4z" p-id="2137"></path><path d="M513.2 626.4c-18.2 0.7-32.5 15.6-32.4 33.8 0.7 18 15.8 32 33.8 31.4 18-0.7 32.1-15.8 31.4-33.8-0.7-17.6-15.2-31.5-32.8-31.4z" fill="#FF9999" p-id="2138"></path><path d="M513.4 637.4c11.7 0 21.1 9.2 21.6 20.8 0.2 5.8-1.8 11.3-5.8 15.5-3.9 4.2-9.3 6.7-15 6.9h-0.8c-11.6 0-21.1-9.1-21.6-20.6-0.1-12.2 9.4-22.1 21.6-22.6m-0.1-11h-0.2c-18.2 0.7-32.5 15.6-32.4 33.8 0.7 17.6 15.1 31.4 32.6 31.4h1.2c18-0.7 32.1-15.8 31.4-33.8-0.6-17.6-15-31.4-32.6-31.4z" p-id="2139"></path><path d="M664 626.4c-18.2 0.7-32.5 15.6-32.4 33.8 0.7 18 15.8 32 33.8 31.4 18-0.7 32.1-15.8 31.4-33.8-0.7-17.6-15.2-31.5-32.8-31.4z" fill="#FFFFFF" p-id="2140"></path><path d="M664.2 637.4c11.7 0 21.1 9.2 21.6 20.8 0.2 5.8-1.8 11.3-5.8 15.5-3.9 4.2-9.3 6.7-15 6.9h-0.8c-11.6 0-21.1-9.1-21.6-20.6 0-12.2 9.5-22.1 21.6-22.6m0-11h-0.2c-18.2 0.7-32.5 15.6-32.4 33.8 0.7 17.6 15.1 31.4 32.6 31.4h1.2c18-0.7 32.1-15.8 31.4-33.8-0.7-17.6-15.1-31.4-32.6-31.4z" p-id="2141"></path><path d="M362.3 626.4c-18.2 0.7-32.5 15.6-32.4 33.8 0.7 18 15.8 32 33.8 31.4 18-0.7 32.1-15.8 31.4-33.8-0.7-17.6-15.2-31.5-32.8-31.4z" fill="#FFFFFF" p-id="2142"></path><path d="M362.5 637.4c11.7 0 21.1 9.2 21.6 20.8 0.2 5.8-1.8 11.3-5.8 15.5-3.9 4.2-9.3 6.7-15 6.9h-0.8c-11.6 0-21.1-9.1-21.6-20.6 0-12.2 9.5-22.1 21.6-22.6m0-11h-0.2c-18.2 0.7-32.5 15.6-32.4 33.8 0.7 17.6 15.1 31.4 32.6 31.4h1.2c18-0.7 32.1-15.8 31.4-33.8-0.7-17.6-15.1-31.4-32.6-31.4z" p-id="2143"></path></svg>