<?xml version="1.0" standalone="no"?><!DOCTYPE svg PUBLIC "-//W3C//DTD SVG 1.1//EN" "http://www.w3.org/Graphics/SVG/1.1/DTD/svg11.dtd"><svg t="1621691307409" class="icon" viewBox="0 0 1024 1024" version="1.1" xmlns="http://www.w3.org/2000/svg" p-id="2434" xmlns:xlink="http://www.w3.org/1999/xlink" width="200" height="200"><defs><style type="text/css"></style></defs><path d="M799.8 735.2H229.2c-29.4 0-53.3-24.7-53.3-55.1V357.9c0-30.4 23.9-55.1 53.3-55.1h570.6c29.4 0 53.3 24.7 53.3 55.1v322.3c0 30.3-23.9 55-53.3 55z" fill="#99E5E2" p-id="2435"></path><path d="M799.8 319c20.5 0 37.2 17.5 37.2 39v322.3c0 21.5-16.7 39-37.2 39H229.2c-20.5 0-37.2-17.5-37.2-39V357.9c0-21.5 16.7-39 37.2-39h570.6m0-16H229.2c-29.4 0-53.3 24.7-53.3 55.1v322.3c0 30.4 23.9 55.1 53.3 55.1h570.6c29.4 0 53.2-24.7 53.3-55.1V357.9c0-30.4-23.9-55-53.3-55z" p-id="2436"></path><path d="M456.6 411.6c0 3.3-2.7 5.9-5.9 5.9H260.4c-3.3 0-5.9-2.6-5.9-5.9v-23.7c0-3.3 2.6-5.9 5.9-5.9h190.3c3.3 0 5.9 2.6 5.9 5.9v23.7z" fill="#FFFFFF" p-id="2437"></path><path d="M437.8 423.7H266.9c-11 0-19.8-8.9-19.8-19.8v-17.5c0-11 8.9-19.8 19.8-19.8h170.9c11 0 19.8 8.9 19.8 19.8v17.5c0 10.9-8.8 19.8-19.8 19.8z" fill="#FFFFFF" p-id="2438"></path><path d="M437.8 382.4c2.2 0 4 1.8 4 4v17.5c0 2.2-1.8 4-4 4H266.9c-2.2 0-4-1.8-4-4v-17.5c0-2.2 1.8-4 4-4h170.9m0-15.9H266.9c-11 0-19.8 8.9-19.8 19.8v17.5c0 11 8.9 19.8 19.8 19.8h170.9c11 0 19.8-8.9 19.8-19.8v-17.5c0-10.9-8.8-19.8-19.8-19.8z" p-id="2439"></path><path d="M366.8 570.7h-97.1c-12.5 0-22.7-10.1-22.7-22.7v-57.7c0-12.5 10.1-22.7 22.7-22.7h97.1c12.5 0 22.7 10.1 22.7 22.7V548c-0.1 12.5-10.2 22.7-22.7 22.7z" fill="#FFFFFF" p-id="2440"></path><path d="M366.8 483.6c3.7 0 6.8 3 6.8 6.8V548c0 3.7-3 6.8-6.8 6.8h-97.1c-3.7 0-6.8-3-6.8-6.8v-57.7c0-3.7 3-6.8 6.8-6.8h97.1m0-15.8h-97.1c-12.5 0-22.7 10.1-22.7 22.7V548c0 12.5 10.1 22.7 22.7 22.7h97.1c12.5 0 22.7-10.1 22.7-22.7v-57.7c-0.1-12.5-10.2-22.6-22.7-22.6z" p-id="2441"></path><path d="M765.6 672.3h-495c-13 0-23.6-10.6-23.6-23.6v-18.3c0-13 10.6-23.6 23.6-23.6h494.9c13 0 23.6 10.6 23.6 23.6v18.3c0 13.1-10.5 23.6-23.5 23.6z" fill="#FFFFFF" p-id="2442"></path><path d="M765.6 622.8c4.2 0 7.7 3.5 7.7 7.7v18.3c0 4.2-3.5 7.7-7.7 7.7h-495c-4.2 0-7.7-3.5-7.7-7.7v-18.3c0-4.2 3.5-7.7 7.7-7.7h495m0-15.9h-495c-13 0-23.6 10.6-23.6 23.6v18.3c0 13 10.6 23.6 23.6 23.6h494.9c13 0 23.6-10.6 23.6-23.6v-18.3c0-13.1-10.5-23.6-23.5-23.6z" p-id="2443"></path><path d="M614.7 472.8m-73.3 0a73.3 73.3 0 1 0 146.6 0 73.3 73.3 0 1 0-146.6 0Z" fill="#FF9999" p-id="2444"></path><path d="M614.7 415.5c31.6 0 57.4 25.7 57.4 57.4 0 31.6-25.7 57.4-57.4 57.4s-57.4-25.7-57.4-57.4 25.7-57.4 57.4-57.4m0-15.9c-40.5 0-73.3 32.8-73.3 73.3s32.8 73.3 73.3 73.3 73.3-32.8 73.3-73.3c-0.1-40.5-32.9-73.3-73.3-73.3z" p-id="2445"></path><path d="M715.1 472.8m-73.3 0a73.3 73.3 0 1 0 146.6 0 73.3 73.3 0 1 0-146.6 0Z" fill="#FFFFFF" p-id="2446"></path><path d="M715.1 415.5c31.6 0 57.4 25.7 57.4 57.4 0 31.6-25.7 57.4-57.4 57.4s-57.4-25.7-57.4-57.4 25.7-57.4 57.4-57.4m0-15.9c-40.5 0-73.3 32.8-73.3 73.3s32.8 73.3 73.3 73.3 73.3-32.8 73.3-73.3c-0.1-40.5-32.9-73.3-73.3-73.3z" p-id="2447"></path></svg>