<?xml version="1.0" standalone="no"?><!DOCTYPE svg PUBLIC "-//W3C//DTD SVG 1.1//EN" "http://www.w3.org/Graphics/SVG/1.1/DTD/svg11.dtd"><svg t="1621691341799" class="icon" viewBox="0 0 1024 1024" version="1.1" xmlns="http://www.w3.org/2000/svg" p-id="3920" xmlns:xlink="http://www.w3.org/1999/xlink" width="200" height="200"><defs><style type="text/css"></style></defs><path d="M322.6 648.7c-7.3 0-13.2-5.9-13.2-13.2v-118l448.4 24.9v93c0 7.3-5.9 13.2-13.2 13.2h-422z" fill="#FFFFFF" p-id="3921"></path><path d="M321.6 339.4c-4.9 0-8.8-3.9-8.8-8.8v-92.3l-104.4-1.2c-4.9-0.1-8.7-4-8.7-8.9 0.1-4.9 3.9-8.4 8.9-8.7l113.1 1.3c4.8 0.1 8.7 4 8.7 8.8v101c0 4.9-3.9 8.8-8.8 8.8z" p-id="3922"></path><path d="M733.5 358.1c-3.8-2-8-3.4-12.5-3.9L312.7 305l0.8 310.8c0 7.4 2.3 14.2 6.1 19.9 6.4 9.5 17.3 15.7 29.6 15.7h367.5c19.7 0 35.7-16 35.7-35.7V389.6c0.1-13.5-7.5-25.5-18.9-31.5z" fill="#FFFFFF" p-id="3923"></path><path d="M330.4 324.8l388.5 46.8c2.2 0.3 4.4 0.9 6.3 2 5.9 3.2 9.6 9.3 9.6 16v226.1c0 10-8.1 18.1-18.1 18.1H349.3c-6 0-11.6-3-15-8-2-3-3.1-6.5-3.1-10.1l-0.8-290.9M312.7 305l0.8 310.8c0 7.4 2.3 14.2 6.1 19.9 6.4 9.5 17.3 15.7 29.6 15.7h367.5c19.7 0 35.7-16 35.7-35.7V389.6c0-13.6-7.6-25.5-19-31.5-3.8-2-8-3.4-12.5-3.9L312.7 305z" p-id="3924"></path><path d="M313.5 497.3v118.5c0 19.7 16 35.7 35.7 35.7h367c19.7 0 35.7-16 35.7-35.7V531l-438.4-33.7z" fill="#99E5E2" p-id="3925"></path><path d="M331.3 516.5l402.8 30.9v68.4c0 9.9-8 17.9-17.9 17.9h-367c-9.9 0-17.9-8-17.9-17.9v-99.3m-17.8-19.2v118.5c0 19.7 16 35.7 35.7 35.7h367c19.7 0 35.7-16 35.7-35.7V531l-438.4-33.7z" p-id="3926"></path><path d="M399.8 742.9m-55.6 0a55.6 55.6 0 1 0 111.2 0 55.6 55.6 0 1 0-111.2 0Z" fill="#FF9999" p-id="3927"></path><path d="M399.9 704.9c19 0 35.2 14.3 37.7 33.2 2.7 20.8-12.1 39.9-32.9 42.6-1.6 0.2-3.3 0.3-4.9 0.3-19 0-35.2-14.3-37.7-33.2-2.7-20.8 12.1-39.9 32.9-42.6 1.6-0.2 3.2-0.3 4.9-0.3m0-17.6c-2.4 0-4.8 0.2-7.2 0.5-30.5 3.9-52 31.8-48.1 62.3 3.6 28.1 27.6 48.5 55.1 48.5 2.4 0 4.8-0.2 7.2-0.5 30.5-3.9 52-31.8 48.1-62.3-3.7-28.1-27.6-48.5-55.1-48.5z" p-id="3928"></path><path d="M661.8 742.9m-55.6 0a55.6 55.6 0 1 0 111.2 0 55.6 55.6 0 1 0-111.2 0Z" fill="#FF9999" p-id="3929"></path><path d="M661.8 704.9c21 0 38.1 17.1 38.1 38.1s-17.1 38.1-38.1 38.1-38.1-17.1-38.1-38.1c0.1-21.1 17.1-38.1 38.1-38.1m0-17.6c-30.7 0-55.6 24.9-55.6 55.6s24.9 55.6 55.6 55.6c30.7 0 55.6-24.9 55.6-55.6s-24.8-55.6-55.6-55.6z" p-id="3930"></path></svg>