<?xml version="1.0" standalone="no"?><!DOCTYPE svg PUBLIC "-//W3C//DTD SVG 1.1//EN" "http://www.w3.org/Graphics/SVG/1.1/DTD/svg11.dtd"><svg t="1621691336208" class="icon" viewBox="0 0 1024 1024" version="1.1" xmlns="http://www.w3.org/2000/svg" p-id="3620" xmlns:xlink="http://www.w3.org/1999/xlink" width="200" height="200"><defs><style type="text/css"></style></defs><path d="M339.1 619.6c-16 0-29-13-29-29V451.7h-61.7c-20 0-36.3 16.2-36.3 36.3v265.2c0 8 6.5 14.5 14.5 14.5 3.5 0 7-1.3 9.6-3.7l48.6-43.1c4-3.5 9.1-5.5 14.4-5.5H524c20 0 36.3-16.2 36.3-36.3v-59.6H339.1z" fill="#FF9999" p-id="3621"></path><path d="M292.4 469.4v121.2c0 25.7 20.9 46.7 46.7 46.7h203.6v42c0 10.3-8.3 18.6-18.6 18.6H299.3c-9.6 0-18.9 3.5-26.1 9.9l-43.3 38.4V488c0-10.3 8.3-18.6 18.6-18.6h43.9m17.6-17.7h-61.7c-20 0-36.3 16.2-36.3 36.3v265.2c0 8 6.5 14.5 14.5 14.5 3.5 0 7-1.3 9.6-3.7l48.6-43.1c4-3.5 9.1-5.5 14.4-5.5H524c20 0 36.3-16.2 36.3-36.3v-59.6H339.1c-16 0-29-13-29-29V451.7h-0.1z" p-id="3622"></path><path d="M744.4 255.6H332.7c-27 0-48.9 22-48.9 48.9V597c0 27 22 48.9 48.9 48.9h333.6c9.4 0 18.5 3.5 25.6 9.8l78 69.9c2.1 1.9 4.9 2.9 7.7 2.9 1.6 0 3.1-0.3 4.6-1 4.1-1.8 6.8-5.9 6.9-10.4l6-410.8v-0.1c-0.2-27.9-22.9-50.6-50.7-50.6z" fill="#99E5E2" p-id="3623"></path><path d="M744.4 273.5c18 0 32.7 14.7 32.7 32.7l-5.8 396.7-67.5-60.5c-10.3-9.3-23.6-14.4-37.5-14.4H332.7c-17.1 0-31-13.9-31-31V304.5c0-17.1 13.9-31 31-31h411.7m0-17.9H332.7c-27 0-48.9 22-48.9 48.9V597c0 27 22 48.9 48.9 48.9h333.6c9.4 0 18.5 3.5 25.6 9.8l78 69.9c2.1 1.9 4.9 2.9 7.7 2.9 1.6 0 3.1-0.3 4.6-1 4.1-1.8 6.8-5.9 6.9-10.4l6-410.8v-0.1c-0.2-27.9-22.9-50.6-50.7-50.6z" p-id="3624"></path><path d="M427.1 445.9m-31.1 0a31.1 31.1 0 1 0 62.2 0 31.1 31.1 0 1 0-62.2 0Z" fill="#FFFFFF" p-id="3625"></path><path d="M427.1 425.5c11.3 0 20.4 9.2 20.4 20.4s-9.2 20.4-20.4 20.4-20.4-9.2-20.4-20.4 9.1-20.4 20.4-20.4m0-10.7c-17.2 0-31.1 13.9-31.1 31.1 0 17.2 13.9 31.1 31.1 31.1 17.2 0 31.1-13.9 31.1-31.1 0-17.2-13.9-31.1-31.1-31.1z" p-id="3626"></path><path d="M562.5 439.6c-1.7-8.1-6.5-15-13.1-19.5-5-3.4-10.9-5.3-17.4-5.3-17.2 0-31.1 13.9-31.1 31.1 0 17.2 13.9 31.1 31.1 31.1 6.4 0 12.4-2 17.4-5.3 6.6-4.5 11.4-11.4 13.1-19.5 0.4-2 0.6-4.1 0.6-6.3s-0.2-4.2-0.6-6.3z" fill="#FFFFFF" p-id="3627"></path><path d="M532.1 425.5c4.1 0 8 1.2 11.4 3.5 4.5 3 7.5 7.6 8.6 12.8 0.3 1.3 0.4 2.7 0.4 4.1s-0.1 2.8-0.4 4.1c-1.1 5.2-4.1 9.8-8.6 12.8-3.4 2.3-7.3 3.5-11.4 3.5-11.3 0-20.4-9.2-20.4-20.4s9.1-20.4 20.4-20.4m0-10.7c-17.2 0-31.1 13.9-31.1 31.1 0 17.2 13.9 31.1 31.1 31.1 6.4 0 12.4-2 17.4-5.3 6.6-4.5 11.4-11.4 13.1-19.5 0.4-2 0.6-4.1 0.6-6.3s-0.2-4.2-0.6-6.3c-1.7-8.1-6.5-15-13.1-19.5-5-3.3-11-5.3-17.4-5.3z" p-id="3628"></path><path d="M637 445.9m-31.1 0a31.1 31.1 0 1 0 62.2 0 31.1 31.1 0 1 0-62.2 0Z" fill="#FFFFFF" p-id="3629"></path><path d="M637 425.5c11.3 0 20.4 9.2 20.4 20.4s-9.2 20.4-20.4 20.4c-11.3 0-20.4-9.2-20.4-20.4s9.2-20.4 20.4-20.4m0-10.7c-17.2 0-31.1 13.9-31.1 31.1 0 17.2 13.9 31.1 31.1 31.1 17.2 0 31.1-13.9 31.1-31.1 0-17.2-13.9-31.1-31.1-31.1z" p-id="3630"></path></svg>