<?xml version="1.0" standalone="no"?><!DOCTYPE svg PUBLIC "-//W3C//DTD SVG 1.1//EN" "http://www.w3.org/Graphics/SVG/1.1/DTD/svg11.dtd"><svg t="1621691324458" class="icon" viewBox="0 0 1024 1024" version="1.1" xmlns="http://www.w3.org/2000/svg" p-id="3181" xmlns:xlink="http://www.w3.org/1999/xlink" width="200" height="200"><defs><style type="text/css"></style></defs><path d="M272.5 280c-16.8 0-30.5 13.9-30.5 30.9v428.3c0.1 11.7 9.6 21.2 21.2 21l459.4-7.1c8.6-0.1 16.3-5.6 19.3-13.7l29.9-79.2 63.3-187.9c0.4-1.2 0.6-2.4 0.6-3.7 0-6.7-5.3-12.1-11.9-12.1h-95.3c-0.2 0-0.4-0.2-0.3-0.4l19.6-65.7c2.5-7 1.3-15.3-4.3-21.6-4.1-4.6-10.3-6.7-16.3-6.6l-222.3 2.6c-0.1 0-0.2 0-0.3-0.1L452 292.3c-5.8-7.9-14.9-12.6-24.7-12.6l-154.8 0.3z" fill="#99E5E2" p-id="3182"></path><path d="M262.9 768.9c-7.7 0-15-3-20.6-8.4-5.7-5.6-8.9-13.1-9-21.2V310.9c0-21.8 17.6-39.6 39.1-39.6l154.9-0.3h0.1c12.5 0 24.3 6.1 31.6 16.2l50 68.9 218-2.5c9.1-0.1 17.5 3.4 22.9 9.5 7.3 8.3 9.6 19.8 6.1 30l-16.3 54.8h84c11.4 0 20.6 9.3 20.6 20.8 0 2.2-0.3 4.3-1 6.3v0.1l-63.2 187.4v0.2L750 742.5c-4.4 11.5-15.1 19.1-27.3 19.3l-459.4 7.1h-0.4z m9.6-480.2c-12 0-21.8 10-21.8 22.2v428.3c0 3.3 1.4 6.5 3.8 8.8 2.3 2.3 5.4 3.5 8.6 3.5l459.4-7.1c5.1-0.1 9.5-3.3 11.3-8.1l29.8-79 63.3-187.7c0.1-0.3 0.2-0.7 0.2-1 0-1.9-1.5-3.4-3.3-3.4h-95.3c-2.9 0-5.7-1.4-7.4-3.8-1.6-2.3-2.1-5.2-1.2-7.8l19.7-66.1c1.6-4.4 0.6-9.2-2.6-12.9-2.1-2.3-5.5-3.7-9.5-3.7h-0.2L505 373.5c-2.9 0.1-5.7-1.4-7.4-3.7L445 297.4c-4.1-5.7-10.7-9-17.6-9l-154.9 0.3z" p-id="3183"></path><path d="M488.1 315.8h322.3c18.2 0 27.8 16.4 21.4 36.7-16.7 53.1-29.3 93-37.7 119.6L407 468.5c8.1-25.8 20.3-64.4 36.5-115.9 6.5-20.3 26.4-36.8 44.6-36.8z" fill="#FFFFFF" p-id="3184"></path><path d="M810.4 333.1c3.4 0 4.4 1.3 4.7 1.8 1.3 1.8 2.2 6.2 0.2 12.5l-33.8 107.4-351-3.3 29.5-93.7c4.4-14.1 18.5-24.6 28.1-24.6h322.3m0-17.4H488.1c-18.2 0-38.1 16.4-44.5 36.7-16.2 51.5-28.4 90.2-36.5 115.9l387 3.6c8.4-26.6 20.9-66.4 37.7-119.6 6.4-20.1-3.2-36.6-21.4-36.6z" p-id="3185"></path><path d="M381.7 445.3c-13.1 0-28.8 11.5-33.5 25l-95.7 280.6c-3.8 10.7 0.4 17.1 10.1 17.1l457.9-6c13.1 0 29.2-12.8 34-26.3l96.6-273.3c3.8-10.7-0.4-17.1-10.1-17.1H381.7z" fill="#99E5E2" p-id="3186"></path><path d="M832.3 462.9L738 729.8c-2.7 7.5-12.8 14.6-17.4 14.6h-0.2l-449 5.9 93.5-274.2c2.5-6.8 11.6-13.2 16.9-13.2h450.5m8.8-17.6H381.7c-13.1 0-28.8 11.5-33.5 25l-95.7 280.6c-3.8 10.7 0.4 17.1 10.1 17.1l457.9-6c13.1 0 29.2-12.8 34-26.3l96.6-273.3c3.9-10.7-0.3-17.1-10-17.1z" p-id="3187"></path><path d="M685.3 497.9l14.4 29.1c0.9 1.9 2.7 3.1 4.7 3.4l32.1 4.7c5.1 0.7 7.2 7.1 3.5 10.7l-23.3 22.7c-1.5 1.4-2.2 3.5-1.8 5.5l5.5 32c0.9 5.1-4.5 9-9.1 6.6l-28.7-15.1c-1.8-1-4-1-5.8 0L648 612.7c-4.6 2.4-10-1.5-9.1-6.6l5.5-32c0.3-2-0.3-4.1-1.8-5.5l-23.3-22.7c-3.7-3.6-1.7-9.9 3.5-10.7l32.1-4.7c2-0.3 3.8-1.6 4.7-3.4L674 498c2.4-4.7 9-4.7 11.3-0.1z" fill="#FF9999" p-id="3188"></path><path d="M645.1 619.2c-2.5 0-5-0.8-7.1-2.3-3.7-2.7-5.6-7.2-4.8-11.8l5.5-32c0-0.2 0-0.3-0.1-0.4L615.3 550c-3.3-3.2-4.5-8-3-12.3 1.4-4.4 5.2-7.5 9.7-8.2l32.1-4.7c0.2 0 0.3-0.1 0.4-0.3l14.4-29.1c2-4.1 6.2-6.7 10.8-6.7 4.6 0 8.8 2.6 10.8 6.7l14.4 29.1c0.1 0.1 0.2 0.2 0.4 0.3l32.1 4.7c4.6 0.7 8.3 3.8 9.7 8.2 1.4 4.4 0.3 9.1-3 12.3l-23.3 22.7c-0.1 0.1-0.2 0.3-0.1 0.4l5.5 32c0.8 4.6-1.1 9.1-4.8 11.8-3.7 2.7-8.6 3.1-12.7 0.9L680 602.7c-0.1-0.1-0.3-0.1-0.5 0l-28.7 15.1c-1.9 0.9-3.8 1.4-5.7 1.4z m34.6-119c-0.3 0-0.4 0.2-0.4 0.3l-14.4 29.1c-1.8 3.6-5.1 6-9.1 6.6l-32.1 4.7c-0.1 0-0.3 0-0.4 0.3s0 0.4 0.1 0.5l23.3 22.7c2.8 2.8 4.1 6.8 3.5 10.7l-5.5 32c0 0.1-0.1 0.3 0.2 0.5 0.3 0.2 0.4 0.1 0.5 0l28.7-15.1c3.5-1.8 7.7-1.8 11.2 0l28.7 15.1c0.1 0.1 0.3 0.1 0.5 0 0.2-0.2 0.2-0.4 0.2-0.5l-5.5-32c-0.7-3.9 0.6-7.9 3.5-10.7l23.3-22.7c0.1-0.1 0.2-0.2 0.1-0.5s-0.3-0.3-0.4-0.3l-32.1-4.7c-3.9-0.6-7.3-3-9.1-6.6l-14.4-29.1c0-0.1-0.1-0.3-0.4-0.3z" p-id="3189"></path></svg>