<?xml version="1.0" standalone="no"?><!DOCTYPE svg PUBLIC "-//W3C//DTD SVG 1.1//EN" "http://www.w3.org/Graphics/SVG/1.1/DTD/svg11.dtd"><svg t="1621691345283" class="icon" viewBox="0 0 1024 1024" version="1.1" xmlns="http://www.w3.org/2000/svg" p-id="4067" xmlns:xlink="http://www.w3.org/1999/xlink" width="200" height="200"><defs><style type="text/css"></style></defs><path d="M866.7 542.5c-16.6 2.9-32.3-8.2-35.2-24.8-2.9-16.6 8.2-32.3 24.8-35.2 1-0.2 1.9-0.3 2.9-0.4l-8.1-46.3c-0.9 0.3-1.9 0.5-2.8 0.6-16.6 2.9-32.3-8.2-35.2-24.8-2.9-16.6 8.2-32.3 24.8-35.2 1-0.2 1.9-0.3 2.9-0.4l-8.1-46.3c-0.9 0.3-1.9 0.5-2.8 0.6-16.6 2.9-32.3-8.2-35.2-24.8-2.9-16.6 8.2-32.3 24.8-35.2 1-0.2 1.9-0.3 2.9-0.4l-5.9-34.2c-1-5.7-6.4-9.6-12.2-8.6l-544.9 94.8c-5.7 1-9.6 6.4-8.6 12.2l6 34.3c1.3-0.4 2.7-0.8 4.1-1 16.6-2.9 32.3 8.2 35.2 24.8 2.9 16.6-8.2 32.3-24.8 35.2-1.4 0.2-2.8 0.4-4.2 0.4l8.1 46.6c1.3-0.4 2.7-0.8 4.1-1 16.6-2.9 32.3 8.2 35.2 24.8 2.9 16.6-8.2 32.3-24.8 35.2-1.4 0.2-2.8 0.4-4.2 0.4l8.1 46.6c1.3-0.4 2.7-0.8 4.1-1 16.6-2.9 32.3 8.2 35.2 24.8 2.9 16.6-8.2 32.3-24.8 35.2-1.4 0.2-2.8 0.4-4.2 0.4l7.8 44.7L867 587.9c5.7-1 9.6-6.4 8.6-12.2l-5.9-34.2c-1.1 0.6-2.1 0.8-3 1z" fill="#FF9999" p-id="4068"></path><path d="M800.9 244.9l2.3 13.4c-18 9.2-28.7 29.3-25.1 50.2 3.6 20.7 20.2 36.2 40.6 38.8l3 17.1c-18 9.2-28.7 29.3-25.1 50.2 3.6 20.7 20.2 36.2 40.6 38.8l3 17.1c-18 9.2-28.7 29.3-25.1 50.2 3.6 20.7 20.2 36.2 40.6 38.8l2.3 13.4-532.6 92.6-2.3-13c18.7-8.9 30.1-29.4 26.3-50.8-3.7-21.2-21-36.9-41.9-38.9l-2.8-16.3c18.7-8.9 30.1-29.4 26.3-50.8-3.7-21.2-21-36.9-41.9-38.9l-2.8-16.3c18.7-8.9 30.1-29.4 26.3-50.8-3.7-21.2-21-36.9-41.9-38.9l-2.3-13 532.5-92.9m5-17.7c-0.6 0-1.2 0.1-1.8 0.2l-544.9 94.8c-5.7 1-9.6 6.4-8.6 12.2l6 34.3c1.3-0.4 2.7-0.8 4.1-1 1.8-0.3 3.5-0.5 5.3-0.5 14.5 0 27.4 10.4 30 25.2 2.9 16.6-8.2 32.3-24.8 35.2-1.4 0.2-2.8 0.4-4.2 0.4l8.1 46.6c1.3-0.4 2.7-0.8 4.1-1 1.8-0.3 3.5-0.5 5.3-0.5 14.5 0 27.4 10.4 30 25.2 2.9 16.6-8.2 32.3-24.8 35.2-1.4 0.2-2.8 0.4-4.2 0.4l8.1 46.6c1.3-0.4 2.7-0.8 4.1-1 1.8-0.3 3.5-0.5 5.3-0.5 14.5 0 27.4 10.4 30 25.2 2.9 16.6-8.2 32.3-24.8 35.2-1.4 0.2-2.8 0.4-4.2 0.4l7.8 44.7 555.3-96.6c5.7-1 9.6-6.4 8.6-12.2l-5.9-34.2c-0.9 0.3-1.9 0.5-2.8 0.6-1.8 0.3-3.5 0.5-5.3 0.5-14.5 0-27.4-10.4-30-25.2-2.9-16.6 8.2-32.3 24.8-35.2 1-0.2 1.9-0.3 2.9-0.4l-8.1-46.3c-0.9 0.3-1.9 0.5-2.8 0.6-1.8 0.3-3.5 0.5-5.3 0.5-14.5 0-27.4-10.4-30-25.2-2.9-16.6 8.2-32.3 24.8-35.2 1-0.2 1.9-0.3 2.9-0.4l-8.1-46.3c-0.9 0.3-1.9 0.5-2.8 0.6-1.8 0.3-3.5 0.5-5.3 0.5-14.5 0-27.4-10.4-30-25.2-2.9-16.6 8.2-32.3 24.8-35.2 1-0.2 1.9-0.3 2.9-0.4l-5.9-34.2c-1.1-4.8-5.5-8.4-10.6-8.4z" p-id="4069"></path><path d="M774.4 655.7c-16.6 2.9-32.3-8.2-35.2-24.8-2.9-16.6 8.2-32.3 24.8-35.2 1-0.2 1.9-0.3 2.9-0.4l-8.1-46.3c-0.9 0.3-1.9 0.5-2.8 0.6-16.6 2.9-32.3-8.2-35.2-24.8-2.9-16.6 8.2-32.3 24.8-35.2 1-0.2 1.9-0.3 2.9-0.4l-8.1-46.3c-0.9 0.3-1.9 0.5-2.8 0.6-16.6 2.9-32.3-8.2-35.2-24.8-2.9-16.6 8.2-32.3 24.8-35.2 1-0.2 1.9-0.3 2.9-0.4l-5.9-34.2c-1-5.7-6.4-9.6-12.2-8.6l-545 95.1c-5.7 1-9.6 6.4-8.6 12.2l6 34.3c1.3-0.4 2.7-0.8 4.1-1 16.6-2.9 32.3 8.2 35.2 24.8 2.9 16.6-8.2 32.3-24.8 35.2-1.4 0.2-2.8 0.4-4.2 0.4l8.1 46.6c1.3-0.4 2.7-0.8 4.1-1 16.6-2.9 32.3 8.2 35.2 24.8 2.9 16.6-8.2 32.3-24.8 35.2-1.4 0.2-2.8 0.4-4.2 0.4l8.1 46.6c1.3-0.4 2.7-0.8 4.1-1 16.6-2.9 32.3 8.2 35.2 24.8 2.9 16.6-8.2 32.3-24.8 35.2-1.4 0.2-2.8 0.4-4.2 0.4l6 34.3c1 5.7 6.4 9.6 12.2 8.6l544.9-94.8c5.7-1 9.6-6.4 8.6-12.2l-5.9-34.2c-1 0.3-1.9 0.5-2.9 0.7z" fill="#99E5E2" p-id="4070"></path><path d="M708.6 358.2l2.3 13.4c-18 9.2-28.7 29.3-25.1 50.2 3.6 20.7 20.2 36.2 40.6 38.8l3 17.1c-18 9.2-28.7 29.3-25.1 50.2 3.6 20.7 20.2 36.2 40.6 38.8l3 17c-6.8 3.4-12.7 8.5-17.2 14.9-7.3 10.3-10.1 22.8-7.9 35.3 3.6 20.7 20.2 36.2 40.6 38.8l2.3 13.4L233 778.6l-2.3-13c18.7-8.9 30.1-29.4 26.3-50.8-3.7-21.2-21-36.9-41.9-38.9l-2.8-16.3c18.7-8.9 30.1-29.4 26.3-50.8-3.7-21.2-21-36.9-41.9-38.9l-2.8-16.3c18.7-8.9 30.1-29.4 26.3-50.8-3.7-21.2-21-36.9-41.9-38.9l-2.3-13 532.6-92.7m5.1-17.8c-0.6 0-1.2 0.1-1.8 0.2L167 435.4c-5.7 1-9.6 6.4-8.6 12.2l6 34.3c1.3-0.4 2.7-0.8 4.1-1 1.8-0.3 3.5-0.5 5.3-0.5 14.5 0 27.4 10.4 30 25.2 2.9 16.6-8.2 32.3-24.8 35.2-1.4 0.2-2.8 0.4-4.2 0.4l8.1 46.6c1.3-0.4 2.7-0.8 4.1-1 1.8-0.3 3.5-0.5 5.3-0.5 14.5 0 27.4 10.4 30 25.2 2.9 16.6-8.2 32.3-24.8 35.2-1.4 0.2-2.8 0.4-4.2 0.4l8.1 46.6c1.3-0.4 2.7-0.8 4.1-1 1.8-0.3 3.5-0.5 5.3-0.5 14.5 0 27.4 10.4 30 25.2 2.9 16.6-8.2 32.3-24.8 35.2-1.4 0.2-2.8 0.4-4.2 0.4l6 34.3c0.9 5.1 5.3 8.7 10.4 8.7 0.6 0 1.2-0.1 1.8-0.2L774.9 701c5.7-1 9.6-6.4 8.6-12.2l-5.9-34.2c-0.9 0.3-1.9 0.5-2.8 0.6-1.8 0.3-3.5 0.5-5.3 0.5-14.5 0-27.4-10.4-30-25.2-2.9-16.6 8.2-32.3 24.8-35.2 1-0.2 1.9-0.3 2.9-0.4l-8.1-46.3c-0.9 0.3-1.9 0.5-2.8 0.6-1.8 0.3-3.5 0.5-5.3 0.5-14.5 0-27.4-10.4-30-25.2-2.9-16.6 8.2-32.3 24.8-35.2 1-0.2 1.9-0.3 2.9-0.4l-8.1-46.3c-0.9 0.3-1.9 0.5-2.8 0.6-1.8 0.3-3.5 0.5-5.3 0.5-14.5 0-27.4-10.4-30-25.2-2.9-16.6 8.2-32.3 24.8-35.2 1-0.2 1.9-0.3 2.9-0.4l-5.9-34.2c-1.1-4.6-5.6-8.3-10.6-8.3z" p-id="4071"></path><path d="M472.2 498L307 526.7c-8.2 1.4-15.9-4-17.3-12.2l-4.3-24.6c-1.4-8.2 4-15.9 12.2-17.3l165.2-28.7c8.2-1.4 15.9 4 17.3 12.2l4.3 24.6c1.5 8.1-4 15.9-12.2 17.3z" fill="#FFFFFF" p-id="4072"></path><path d="M465.4 454.8c1.9 0 3.4 1.3 3.8 3.2l4.3 24.6c0.2 1.4-0.3 2.4-0.6 2.9s-1.1 1.3-2.5 1.6l-165.2 28.7c-0.2 0-0.5 0.1-0.7 0.1-1.9 0-3.4-1.3-3.8-3.2l-4.3-24.6c-0.2-1.4 0.3-2.4 0.6-2.9s1.1-1.3 2.5-1.6l165.2-28.7c0.3-0.1 0.5-0.1 0.7-0.1m0-11.1c-0.9 0-1.7 0.1-2.6 0.2l-165.2 28.7c-8.2 1.4-13.6 9.2-12.2 17.3l4.3 24.6a15 15 0 0 0 14.8 12.4c0.9 0 1.7-0.1 2.6-0.2L472.2 498c8.2-1.4 13.6-9.2 12.2-17.3l-4.3-24.6c-1.2-7.3-7.5-12.4-14.7-12.4z" p-id="4073"></path><path d="M488 588.4l-165.2 28.7c-8.2 1.4-15.9-4-17.3-12.2l-4.3-24.6c-1.4-8.2 4-15.9 12.2-17.3l165.2-28.7c8.2-1.4 15.9 4 17.3 12.2l4.3 24.6c1.4 8.1-4.1 15.9-12.2 17.3z" fill="#FFFFFF" p-id="4074"></path><path d="M481.1 545.2c1.9 0 3.4 1.3 3.8 3.2l4.3 24.6c0.2 1.4-0.3 2.4-0.6 2.9s-1.1 1.3-2.5 1.6l-165.2 28.7c-0.2 0-0.5 0.1-0.7 0.1-1.9 0-3.4-1.3-3.8-3.2l-4.3-24.6c-0.2-1.4 0.3-2.4 0.6-2.9s1.1-1.3 2.5-1.6l165.2-28.7c0.3-0.1 0.5-0.1 0.7-0.1m0-11.1c-0.9 0-1.7 0.1-2.6 0.2L313.3 563c-8.2 1.4-13.6 9.2-12.2 17.3l4.3 24.6a15 15 0 0 0 14.8 12.4c0.9 0 1.7-0.1 2.6-0.2L488 588.4c8.2-1.4 13.6-9.2 12.2-17.3l-4.3-24.6a15 15 0 0 0-14.8-12.4z" p-id="4075"></path><path d="M506.7 690.4l-177.6 30.9c-8.8 1.5-17.1-4.3-18.7-13.1l-4.6-26.4c-1.5-8.8 4.3-17.1 13.1-18.7l177.6-30.9c8.8-1.5 17.1 4.3 18.7 13.1l4.6 26.4c1.6 8.9-4.3 17.2-13.1 18.7z" fill="#FFFFFF" p-id="4076"></path><path d="M499.4 643.2c2.4 0 4.4 1.7 4.9 4.1l4.6 26.4c0.3 1.8-0.4 3.1-0.8 3.7-0.4 0.6-1.4 1.7-3.2 2l-177.6 30.9c-0.3 0.1-0.6 0.1-0.9 0.1-2.4 0-4.4-1.7-4.9-4.1l-4.6-26.4c-0.3-1.8 0.4-3.1 0.8-3.7 0.4-0.6 1.4-1.7 3.2-2l177.6-30.9c0.3-0.1 0.6-0.1 0.9-0.1m0-11.2c-0.9 0-1.8 0.1-2.8 0.2L319 663.1c-8.8 1.5-14.7 9.9-13.1 18.7l4.6 26.4c1.4 7.8 8.2 13.4 15.9 13.4 0.9 0 1.8-0.1 2.8-0.2l177.6-30.9c8.8-1.5 14.7-9.9 13.1-18.7l-4.6-26.4c-1.4-7.9-8.2-13.4-15.9-13.4z" p-id="4077"></path><path d="M640.2 649.5l-22 3.8c-8.9 1.5-17.3-4.4-18.8-13.3l-34.3-197.4c-1.5-8.9 4.4-17.3 13.3-18.8l22-3.8c8.9-1.5 17.3 4.4 18.8 13.3l34.3 197.4c1.5 8.8-4.5 17.3-13.3 18.8z" fill="#FFFFFF" p-id="4078"></path><path d="M603 430.9c2.5 0 4.6 1.8 5 4.2l34.3 197.4c0.3 1.8-0.4 3.2-0.9 3.8-0.5 0.6-1.5 1.8-3.3 2.1l-22 3.8c-0.3 0.1-0.6 0.1-0.9 0.1-2.5 0-4.6-1.8-5-4.2l-34.3-197.4c-0.3-1.8 0.4-3.2 0.9-3.8 0.5-0.6 1.5-1.8 3.3-2.1l22-3.8c0.3-0.1 0.7-0.1 0.9-0.1m0-11.2c-0.9 0-1.9 0.1-2.8 0.2l-22 3.8c-8.9 1.5-14.8 10-13.3 18.8l34.3 197.4c1.4 7.9 8.3 13.5 16 13.5 0.9 0 1.9-0.1 2.8-0.2l22-3.8c8.9-1.5 14.8-10 13.3-18.8L619 433.2c-1.3-7.9-8.2-13.5-16-13.5z" p-id="4079"></path></svg>