<?xml version="1.0" standalone="no"?><!DOCTYPE svg PUBLIC "-//W3C//DTD SVG 1.1//EN" "http://www.w3.org/Graphics/SVG/1.1/DTD/svg11.dtd"><svg t="1621691280748" class="icon" viewBox="0 0 1024 1024" version="1.1" xmlns="http://www.w3.org/2000/svg" p-id="1390" xmlns:xlink="http://www.w3.org/1999/xlink" width="200" height="200"><defs><style type="text/css"></style></defs><path d="M700.7 706.4l46.5 21.3v46.5H267.6c-17.7 0-32-14.3-32-32V248.1c0-17.7 14.3-32 32-32h401.1c17.7 0 32 14.3 32 32v458.3z" fill="#FFFFFF" p-id="1391"></path><path d="M668.7 234c7.8 0 14.2 6.4 14.2 14.2v458.3c0 7 4.1 13.3 10.4 16.2l36.1 16.6v17.2H267.6c-7.8 0-14.2-6.4-14.2-14.2V248.1c0-7.8 6.4-14.2 14.2-14.2h401.1m0-17.8H267.6c-17.7 0-32 14.3-32 32v494.2c0 17.7 14.3 32 32 32h479.7v-46.5l-46.5-21.3V248.1c-0.1-17.7-14.4-32-32.1-32z" p-id="1392"></path><path d="M793.7 727.8c3.3 23-16.3 43.8-43.6 46.5-3.9 0.4-7.9 0.4-11.8 0-51.5 0-55.4-46.5-55.4-46.5l0.2-263.6h91.1c10.8 0 19.5 8.7 19.5 19.5v244.1z" fill="#99E5E2" p-id="1393"></path><path d="M774.2 482.3c0.8 0 1.4 0.6 1.4 1.4v245.4l0.2 1.3c0.9 6.2-1.8 11.2-4.2 14.2-5.1 6.5-13.6 10.8-23.3 11.7-1.4 0.1-2.7 0.2-4.1 0.2-1.4 0-2.7-0.1-4.1-0.2l-0.9-0.1h-0.9c-14.5 0-24.7-4.6-31.1-14-4.5-6.5-5.8-13.5-6.2-15.6l0.2-244.4h73m0-18h-91.1l-0.2 263.6s3.9 46.5 55.4 46.5a58.28 58.28 0 0 0 11.8 0c27.3-2.7 46.9-23.6 43.6-46.5V483.6c0-10.7-8.7-19.4-19.5-19.4z" p-id="1394"></path><path d="M463.3 634.4h149.2c5.9 0 10.7 4.8 10.7 10.7v10c0 5.9-4.8 10.7-10.7 10.7H463.3c-5.9 0-10.7-4.8-10.7-10.7v-10c0.1-5.9 4.8-10.7 10.7-10.7zM323.8 309.1h288.8c5.9 0 10.7 4.8 10.7 10.7V345c0 5.9-4.8 10.7-10.7 10.7H323.8c-5.9 0-10.7-4.8-10.7-10.7v-25.2c0-5.9 4.8-10.7 10.7-10.7z" opacity=".05" p-id="1395"></path><path d="M395.5 510.7h-71.7c-5.9 0-10.7-4.8-10.7-10.7v-71.7c0-5.9 4.8-10.7 10.7-10.7h71.7c5.9 0 10.7 4.8 10.7 10.7V500c0 5.9-4.8 10.7-10.7 10.7z" fill="#FF9999" p-id="1396"></path><path d="M395.5 665.7h-71.7c-5.9 0-10.7-4.8-10.7-10.7v-71.7c0-5.9 4.8-10.7 10.7-10.7h71.7c5.9 0 10.7 4.8 10.7 10.7V655c0 6-4.8 10.7-10.7 10.7zM550.5 448.6l-87.2-0.2c-5.9 0-10.6-4.8-10.6-10.7v-9.4c0-5.9 4.8-10.7 10.7-10.7h87.2c5.9 0 10.7 4.8 10.7 10.7v9.6c-0.1 6-4.9 10.8-10.8 10.7zM463.3 482.4h149.2c5.9 0 10.7 4.8 10.7 10.7v10c0 5.9-4.8 10.7-10.7 10.7H463.3c-5.9 0-10.7-4.8-10.7-10.7v-10c0.1-6 4.8-10.7 10.7-10.7zM550.5 603.4l-87.2-0.2c-5.9 0-10.6-4.8-10.6-10.7v-9.4c0-5.9 4.8-10.7 10.7-10.7h87.2c5.9 0 10.7 4.8 10.7 10.7v9.6c-0.1 5.9-4.9 10.7-10.8 10.7z" opacity=".05" p-id="1397"></path></svg>