<?xml version="1.0" standalone="no"?><!DOCTYPE svg PUBLIC "-//W3C//DTD SVG 1.1//EN" "http://www.w3.org/Graphics/SVG/1.1/DTD/svg11.dtd"><svg t="1621691311642" class="icon" viewBox="0 0 1024 1024" version="1.1" xmlns="http://www.w3.org/2000/svg" p-id="2588" xmlns:xlink="http://www.w3.org/1999/xlink" width="200" height="200"><defs><style type="text/css"></style></defs><path d="M328.9 294.8l13.4-38c3.3-9.3 14.1-13.4 22.8-8.7l93.5 51.5c3.1 1.7 5.1 5 5.1 8.5l0.3 25.7c0.1 6.5-6 11.2-12.2 9.7l-111.7-27.8c-9.1-2.3-14.3-12-11.2-20.9z" fill="#FF9999" p-id="2589"></path><path d="M454.2 352c-1.5 0-2.9-0.2-4.4-0.5l-111.7-27.8c-6.6-1.6-12.2-6-15.5-12-3.2-6-3.8-13.1-1.5-19.5l13.4-38c2.4-6.7 7.5-12 14.2-14.6s14-2 20.3 1.4l93.5 51.5c5.7 3.1 9.3 9.1 9.3 15.6l0.3 25.7c0.1 5.6-2.4 10.9-6.9 14.4-3.1 2.4-7 3.8-11 3.8z m-117.5-54.5c-0.7 2.1-0.6 4.3 0.5 6.3s2.8 3.3 5 3.9l111.7 27.8c0.6 0.2 1.1-0.1 1.4-0.3 0.3-0.2 0.6-0.6 0.6-1.3l-0.3-25.7c0-0.6-0.3-1.1-0.8-1.4l-93.5-51.5c-2.7-1.5-5.3-0.9-6.5-0.5-1.3 0.5-3.5 1.7-4.6 4.7l-13.5 38z" p-id="2590"></path><path d="M704.8 294.8l-13.4-38c-3.3-9.3-14.1-13.4-22.8-8.7l-93.5 51.5c-3.1 1.7-5.1 5-5.1 8.5l-0.3 25.7c-0.1 6.5 6 11.2 12.2 9.7l111.7-27.8c9.2-2.3 14.4-12 11.2-20.9z" fill="#FF9999" p-id="2591"></path><path d="M579.5 352c-4 0-7.9-1.3-11.2-3.9-4.4-3.5-6.9-8.7-6.9-14.4l0.3-25.7c0.1-6.5 3.7-12.5 9.3-15.6l93.5-51.5c6.2-3.4 13.6-4 20.3-1.4 6.7 2.5 11.8 7.8 14.2 14.6l13.4 38c2.3 6.4 1.7 13.5-1.5 19.5s-8.9 10.4-15.5 12l-111.7 27.8c-1.2 0.4-2.7 0.6-4.2 0.6z m96.8-97.7c-1.1 0-2.4 0.2-3.7 1l-93.5 51.5c-0.5 0.3-0.8 0.8-0.8 1.4l-0.3 25.7c0 0.7 0.3 1.1 0.6 1.3 0.3 0.2 0.8 0.5 1.4 0.3l111.7-27.8c2.2-0.5 3.9-1.9 5-3.9 1-2 1.2-4.2 0.5-6.3l-13.4-38c-1-3-3.3-4.2-4.6-4.7-0.8-0.2-1.7-0.5-2.9-0.5z" p-id="2592"></path><path d="M723.5 770H307.9c-24.4 0-44.2-19.8-44.2-44.2v-226c0-24.4 19.8-44.2 44.2-44.2h415.7c24.4 0 44.2 19.8 44.2 44.2v225.9c0 24.5-19.8 44.3-44.3 44.3z" fill="#99E5E2" p-id="2593"></path><path d="M723.5 472.2c15.2 0 27.6 12.4 27.6 27.6v225.9c0 15.2-12.4 27.6-27.6 27.6H307.9c-15.2 0-27.6-12.4-27.6-27.6V499.8c0-15.2 12.4-27.6 27.6-27.6h415.6m0-16.6H307.9c-24.4 0-44.2 19.8-44.2 44.2v225.9c0 24.4 19.8 44.2 44.2 44.2h415.7c24.4 0 44.2-19.8 44.2-44.2V499.8c0-24.4-19.8-44.2-44.3-44.2z" p-id="2594"></path><path d="M747.4 495.7H284c-24.4 0-44.2-19.8-44.2-44.2v-60.1c0-24.4 19.8-44.2 44.2-44.2h463.4c24.4 0 44.2 19.8 44.2 44.2v60.1c0 24.4-19.8 44.2-44.2 44.2z" fill="#FFFFFF" p-id="2595"></path><path d="M747.4 363.6c15.3 0 27.8 12.5 27.8 27.8v60.1c0 15.3-12.5 27.8-27.8 27.8H284c-15.3 0-27.8-12.5-27.8-27.8v-60.1c0-15.3 12.5-27.8 27.8-27.8h463.4m0-16.5H284c-24.4 0-44.2 19.8-44.2 44.2v60.1c0 24.4 19.8 44.2 44.2 44.2h463.4c24.4 0 44.2-19.8 44.2-44.2v-60.1c0-24.4-19.8-44.2-44.2-44.2z" p-id="2596"></path><path d="M453.4 479v291h125.7V346.7H453.4z" fill="#FF9999" p-id="2597"></path><path d="M562.7 363.2v390.3h-92.8V363.2h92.8m16.4-16.5H453.4V770h125.7V346.7z" p-id="2598"></path><path d="M453.4 393.3v102.4h125.7v-149H453.4z" fill="#FF9999" p-id="2599"></path><path d="M562.7 363.2v116.1h-92.8V363.2h92.8m16.4-16.5H453.4v148.9h125.7V346.7z" p-id="2600"></path><path d="M453.4 290.4v77.9h125.7V288.2c0-18.3-17.5-33.2-39-33.2h-47.6c-21.6 0-39 14.9-39 33.2v2.2z" fill="#FF9999" p-id="2601"></path><path d="M540.1 271.4c12.3 0 22.6 7.7 22.6 16.7v63.7h-92.8v-63.7c0-9.1 10.4-16.7 22.6-16.7h47.6m0-16.5h-47.6c-21.6 0-39 14.9-39 33.2V368.2h125.7V288.1c-0.1-18.3-17.6-33.2-39.1-33.2z" p-id="2602"></path></svg>