<?xml version="1.0" standalone="no"?><!DOCTYPE svg PUBLIC "-//W3C//DTD SVG 1.1//EN" "http://www.w3.org/Graphics/SVG/1.1/DTD/svg11.dtd"><svg t="1621691338950" class="icon" viewBox="0 0 1024 1024" version="1.1" xmlns="http://www.w3.org/2000/svg" p-id="3769" xmlns:xlink="http://www.w3.org/1999/xlink" width="200" height="200"><defs><style type="text/css"></style></defs><path d="M741.7 794.1h-452c-32.4 0-58.7-26.3-58.7-58.7V446l284.7-183.7L800.3 446l0.1 289.4c0 32.4-26.3 58.7-58.7 58.7z" fill="#99E5E2" p-id="3770"></path><path d="M741.7 802.2h-452c-36.9 0-66.8-30-66.8-66.8V446c0-2.8 1.4-5.4 3.7-6.9l284.7-183.7c2.7-1.7 6.2-1.7 8.9 0l284.5 183.7c2.3 1.5 3.7 4.1 3.7 6.9l0.1 289.4c0 17.9-6.9 34.7-19.6 47.3-12.6 12.6-29.3 19.5-47.2 19.5zM239.2 450.4v285c0 27.9 22.7 50.5 50.5 50.5h451.9c13.5 0 26.2-5.3 35.7-14.8 9.5-9.5 14.8-22.2 14.8-35.7l-0.1-284.9L515.7 272 239.2 450.4z" p-id="3771"></path><path d="M736.1 329.6v299.7H295.2V252.2c0-20.5 16.6-37.1 37.1-37.1h290.3l113.5 114.5z" fill="#FFFFFF" p-id="3772"></path><path d="M615.8 231.4l104 104.8V613H311.6V252.2c0-11.5 9.3-20.8 20.8-20.8h283.4m6.8-16.3H332.4c-20.5 0-37.1 16.6-37.1 37.1v377.1h440.9V329.6L622.6 215.1z" p-id="3773"></path><path d="M275.2 469.4l230.4 137.5 266.3-147.4 1.7 298.8H259z" fill="#99E5E2" p-id="3774"></path><path d="M505.6 615c-1.4 0-2.9-0.4-4.2-1.2l-246-146.6c-3.9-2.3-5.1-7.3-2.8-11.2 2.3-3.9 7.3-5.1 11.2-2.8l242 144.2 258.9-142.8c4-2.2 8.9-0.7 11.1 3.2 2.2 4 0.7 8.9-3.2 11.1l-263 145c-1.3 0.8-2.7 1.1-4 1.1z" p-id="3775"></path><path d="M271.2 758.9l236.7-222.8 253.7 225.1" fill="#99E5E2" p-id="3776"></path><path d="M761.6 769.4c-1.9 0-3.9-0.7-5.4-2.1L508.1 547.2 276.8 764.8c-3.3 3.1-8.5 2.9-11.5-0.3-3.1-3.3-2.9-8.5 0.4-11.5l236.7-222.8c3.1-2.9 7.9-3 11-0.2L767 755.1c3.4 3 3.7 8.2 0.7 11.5-1.6 1.8-3.8 2.8-6.1 2.8z" p-id="3777"></path><path d="M617.7 221.6V320c0 5.4 4.4 9.8 9.8 9.8h102.4L617.7 221.6z" fill="#FFFFFF" p-id="3778"></path><path d="M729.9 335.3H627.5c-8.4 0-15.2-6.8-15.2-15.2v-98.4c0-2.2 1.3-4.2 3.3-5 2-0.9 4.4-0.4 5.9 1.1L733.7 326c1.6 1.5 2.1 3.9 1.3 6-0.9 2-2.9 3.3-5.1 3.3zM623.2 234.5v85.6c0 2.4 1.9 4.3 4.3 4.3h88.9l-93.2-89.9z" p-id="3779"></path><path d="M528 315.6H354c-5.1 0-9.3-4.2-9.3-9.3 0-5.1 4.2-9.3 9.3-9.3h174c5.1 0 9.3 4.2 9.3 9.3 0 5.1-4.2 9.3-9.3 9.3z" fill="#FF9999" p-id="3780"></path><path d="M670.7 480.2H354c-5.1 0-9.3-4.2-9.3-9.3 0-5.1 4.2-9.3 9.3-9.3h316.8c5.1 0 9.3 4.2 9.3 9.3-0.1 5.2-4.3 9.3-9.4 9.3z" fill="#FF9999" p-id="3781"></path><path d="M469.1 425.3H353.9c-5.1 0-9.2-4.1-9.2-9.2v-0.1c0-5.1 4.1-9.2 9.2-9.2h115.2c5.1 0 9.2 4.1 9.2 9.2v0.1c0 5.1-4.1 9.2-9.2 9.2zM503.5 425.3h-6.6c-5.1 0-9.3-4.2-9.3-9.3 0-5.1 4.2-9.3 9.3-9.3h6.6c5.1 0 9.3 4.2 9.3 9.3-0.1 5.2-4.2 9.3-9.3 9.3zM670.8 425.3H531.9c-5.1 0-9.2-4.1-9.2-9.2v-0.1c0-5.1 4.1-9.2 9.2-9.2h138.9c5.1 0 9.2 4.1 9.2 9.2v0.2c0 5-4.1 9.1-9.2 9.1z" fill="#FF9999" p-id="3782"></path><path d="M568.2 370.5H354c-5.1 0-9.3-4.2-9.3-9.3 0-5.1 4.2-9.3 9.3-9.3h214.3c5.1 0 9.3 4.2 9.3 9.3-0.1 5.1-4.2 9.3-9.4 9.3zM670.9 370.5h-66.4c-5.1 0-9.3-4.2-9.3-9.3 0-5.1 4.2-9.3 9.3-9.3h66.4c5.1 0 9.3 4.2 9.3 9.3 0 5.1-4.2 9.3-9.3 9.3z" fill="#FF9999" p-id="3783"></path></svg>