<?xml version="1.0" standalone="no"?><!DOCTYPE svg PUBLIC "-//W3C//DTD SVG 1.1//EN" "http://www.w3.org/Graphics/SVG/1.1/DTD/svg11.dtd"><svg t="1621691277094" class="icon" viewBox="0 0 1024 1024" version="1.1" xmlns="http://www.w3.org/2000/svg" p-id="1245" xmlns:xlink="http://www.w3.org/1999/xlink" width="200" height="200"><defs><style type="text/css"></style></defs><path d="M335.8 598.5c-97.2-96.4-97.9-253.3-1.5-350.5l1.5-1.5c97.8-97.2 256.3-97.2 354.1 0 97.2 96.4 97.9 253.3 1.5 350.5l-1.5 1.5L537.5 750c-13.6 13.5-35.6 13.5-49.3 0L335.8 598.5z" fill="#99E5E2" p-id="1246"></path><path d="M512.8 193.4c30 0 59.2 5.6 86.8 16.8 28.6 11.5 54.3 28.5 76.3 50.4 21.9 21.7 38.8 47 50.4 75.2 11.2 27.3 16.9 56.1 17.1 85.8 0.1 29.6-5.4 58.5-16.3 85.9-11.4 28.3-28.1 53.8-49.8 75.7l-1.4 1.4L523.6 736c-2.9 2.8-6.7 4.4-10.7 4.4-4 0-7.8-1.6-10.7-4.4L349.7 584.5l-2.2-2.2c-20.8-21.2-37-45.7-48.2-73-11.2-27.3-16.9-56.1-17.1-85.8-0.1-29.6 5.4-58.5 16.3-85.9 11.4-28.3 28.1-53.8 49.8-75.7l1.4-1.4c22-21.9 47.7-38.8 76.3-50.3 27.6-11.2 56.9-16.8 86.8-16.8m0-19.8c-64.1 0-128.1 24.3-177 72.9l-1.5 1.5c-96.4 97.2-95.7 254.1 1.5 350.5L488.2 750c6.8 6.8 15.7 10.2 24.6 10.2 8.9 0 17.8-3.4 24.6-10.2l152.4-151.5 1.5-1.5c96.4-97.2 95.7-254.1-1.5-350.5-48.8-48.6-112.9-72.9-177-72.9z" p-id="1247"></path><path d="M512.8 524.1c-55.3 0-100.2-44.8-100.2-100.1s44.8-100.2 100.1-100.2S612.8 368.7 612.8 424c0.2 55.3-44.6 100.1-100 100.1z" fill="#FF9999" p-id="1248"></path><path d="M512.8 343.3c21.5 0 41.8 8.4 57 23.6 15.2 15.2 23.6 35.5 23.6 57 0 44.5-36.2 80.6-80.7 80.7-44.5 0-80.7-36.2-80.7-80.7 0-21.5 8.4-41.8 23.6-57 15.4-15.2 35.7-23.6 57.2-23.6m0-19.5c-55.3 0-100.2 44.9-100.2 100.2 0 55.3 44.8 100.1 100.1 100.1S612.8 479.3 612.8 424c0.2-55.3-44.6-100.2-100-100.2z" p-id="1249"></path><path d="M411.9 817.9a100.9 14.6 0 1 0 201.8 0 100.9 14.6 0 1 0-201.8 0Z" fill="#FFFFFF" p-id="1250"></path><path d="M512.8 842.2c-27.4 0-53.2-1.5-72.7-4.4-22.8-3.3-37.9-7.9-37.9-19.9s15.2-16.7 37.9-19.9c19.5-2.8 45.3-4.4 72.7-4.4s53.2 1.5 72.7 4.4c22.8 3.3 37.9 7.9 37.9 19.9s-15.2 16.7-37.9 19.9c-19.4 2.9-45.3 4.4-72.7 4.4z m93.3-19.2z m-167.4-5.1c15.7 2.6 40.7 4.8 74.1 4.8 33.4 0 58.4-2.3 74.1-4.8-15.7-2.6-40.7-4.8-74.1-4.8s-58.3 2.3-74.1 4.8z" p-id="1251"></path></svg>