<?xml version="1.0" standalone="no"?><!DOCTYPE svg PUBLIC "-//W3C//DTD SVG 1.1//EN" "http://www.w3.org/Graphics/SVG/1.1/DTD/svg11.dtd"><svg t="1621691333176" class="icon" viewBox="0 0 1024 1024" version="1.1" xmlns="http://www.w3.org/2000/svg" p-id="3475" xmlns:xlink="http://www.w3.org/1999/xlink" width="200" height="200"><defs><style type="text/css"></style></defs><path d="M607.2 296.3c-0.7 0-1.3-0.1-2-0.2l-31.7-7.3c-4.7-1.1-7.6-5.8-6.6-10.5l14.3-62.1c2.6-11.4 12.6-19.4 24.3-19.4 1.9 0 3.8 0.2 5.7 0.6 13.4 3.1 21.9 16.6 18.8 30l-14.3 62.1c-0.9 4-4.5 6.8-8.5 6.8z" fill="#99E5E2" p-id="3476"></path><path d="M605.6 187.9v18c1.2 0 2.4 0.1 3.6 0.4 4.2 1 7.7 3.5 10 7.1 2.3 3.6 3 7.9 2 12.1L607 287.3l-31.2-7.2 14.3-61.8c1.7-7.2 8.2-12.4 15.6-12.4l-0.1-18m0 0c-15.5 0-29.5 10.6-33.1 26.4l-14.3 62.1c-2.2 9.5 3.8 19.1 13.3 21.3l31.7 7.3c1.3 0.3 2.7 0.5 4 0.5 8.1 0 15.4-5.5 17.3-13.7l14.3-62.1c4.2-18.3-7.2-36.6-25.5-40.8-2.6-0.8-5.2-1-7.7-1z" p-id="3477"></path><path d="M692.6 744.6h-0.1l-393.9-90.8c-0.1 0-0.2 0-0.3-0.2-0.1-0.2-0.1-0.3-0.1-0.4L351.8 421c10.4-44.9 36-85.3 72.1-113.7 35.6-28 80.1-43.4 125.1-43.4 15.3 0 30.7 1.8 45.7 5.2 52.7 12.2 97.6 44.1 126.3 90 28.7 45.9 37.8 100.2 25.6 153l-53.5 232.2c0 0.2-0.3 0.3-0.5 0.3z" fill="#99E5E2" p-id="3478"></path><path d="M549.1 254.8v18c14.6 0 29.3 1.7 43.7 5 25.5 5.9 49 16.6 70 31.8 20.3 14.7 37.3 32.9 50.7 54.3 13.3 21.3 22.3 44.7 26.6 69.3 4.5 25.5 3.8 51.4-2.1 76.9l-51.6 224-377.4-87 51.6-224c5.1-21.9 13.7-42.5 25.8-61.3 11.6-18.1 26.2-34.1 43.2-47.4 34.1-26.8 76.5-41.5 119.6-41.5l-0.1-18.1m-0.1 0c-96.3 0-183.5 66.2-206 164.1l-53.5 232.2c-1.2 5.1 2 10.2 7.1 11.4l393.9 90.8c0.7 0.2 1.4 0.2 2.1 0.2 4.3 0 8.3-3 9.3-7.4L755.4 514c26.3-113.9-44.8-227.5-158.7-253.8-15.9-3.6-31.9-5.4-47.7-5.4z" p-id="3479"></path><path d="M492.7 800c-6.6 0-13.3-0.8-19.8-2.3-20.2-4.7-37.6-15.9-48.9-31.7-11.1-15.4-15-33.4-11-50.5 6.8-29.4 35.6-49.9 70.1-49.9 6.6 0 13.3 0.8 19.8 2.3 20.2 4.7 37.6 15.9 48.9 31.7 11.1 15.4 15 33.4 11 50.5-6.8 29.4-35.6 49.9-70.1 49.9z" fill="#FF9999" p-id="3480"></path><path d="M483 674.6c5.9 0 11.9 0.7 17.8 2 36.5 8.4 60.4 40.5 53.2 71.4-5.8 25.3-31.1 43-61.4 43-5.9 0-11.9-0.7-17.8-2-36.5-8.4-60.4-40.5-53.2-71.4 5.9-25.3 31.1-43 61.4-43m0-18c-37.8 0-71 22.7-78.9 56.9-9.4 40.7 20.5 82.3 66.7 93 7.4 1.7 14.7 2.5 21.8 2.5 37.8 0 71-22.7 78.9-56.9 9.4-40.7-20.5-82.3-66.7-93-7.3-1.6-14.7-2.5-21.8-2.5z" p-id="3481"></path><path d="M719.9 795.3c-3.2 0-6.4-0.4-9.5-1.1L260.9 690.6c-22.7-5.2-36.9-28-31.7-50.7 4.4-19.3 21.4-32.8 41.1-32.8 3.2 0 6.4 0.4 9.5 1.1l449.5 103.6c22.7 5.2 36.9 28 31.7 50.7-4.4 19.3-21.3 32.8-41.1 32.8z" fill="#FFFFFF" p-id="3482"></path><path d="M270.3 616.1c2.5 0 5 0.3 7.5 0.9l449.5 103.6c17.9 4.1 29.1 22 24.9 39.9-1.7 7.5-5.8 13.9-11.8 18.7-5.9 4.6-13.1 7.1-20.5 7.1-2.5 0-5-0.3-7.5-0.9L262.9 681.8c-8.7-2-16-7.2-20.7-14.8-4.7-7.5-6.2-16.4-4.2-25.1 1.7-7.5 5.8-13.9 11.8-18.7 5.9-4.5 13.1-7.1 20.5-7.1m0-17.9c-23.3 0-44.4 16-49.9 39.7-6.4 27.6 10.8 55.1 38.4 61.4L708.3 803c3.9 0.9 7.7 1.3 11.6 1.3 23.3 0 44.4-16 49.9-39.7 6.4-27.6-10.8-55.1-38.4-61.4L281.9 599.5c-3.9-0.9-7.8-1.3-11.6-1.3z" p-id="3483"></path></svg>