<?xml version="1.0" standalone="no"?><!DOCTYPE svg PUBLIC "-//W3C//DTD SVG 1.1//EN" "http://www.w3.org/Graphics/SVG/1.1/DTD/svg11.dtd"><svg t="1621691321457" class="icon" viewBox="0 0 1024 1024" version="1.1" xmlns="http://www.w3.org/2000/svg" p-id="3033" xmlns:xlink="http://www.w3.org/1999/xlink" width="200" height="200"><defs><style type="text/css"></style></defs><path d="M248.3 252.9h535.1c20 0 36.2 16.2 36.2 36.2v354.3c0 20-16.2 36.2-36.2 36.2H248.3c-20 0-36.2-16.2-36.2-36.2V289c0-19.9 16.2-36.1 36.2-36.1z" fill="#FFFFFF" p-id="3034"></path><path d="M783.4 270.6c10.2 0 18.5 8.3 18.5 18.5v354.3c0 10.2-8.3 18.5-18.5 18.5H248.3c-10.2 0-18.5-8.3-18.5-18.5V289c0-10.2 8.3-18.5 18.5-18.5h535.1m0-17.6H248.3c-20 0-36.2 16.2-36.2 36.2v354.3c0 20 16.2 36.2 36.2 36.2h535.1c20 0 36.2-16.2 36.2-36.2V289c0-19.9-16.2-36.1-36.2-36.1z" p-id="3035"></path><path d="M514 675.9h54.2c-4 16.1-2.1 32 5.7 47.5 7.8 15.5 20.3 28.6 37.7 39.3H420c17.4-10.7 30-23.8 37.7-39.3 7.8-15.5 9.6-31.3 5.7-47.5H514z" fill="#99E5E2" p-id="3036"></path><path d="M548.3 693.9c0.2 12.7 3.4 25.3 9.6 37.6 2.3 4.6 5 9.1 8 13.3H465.8c3-4.3 5.7-8.7 8-13.3 6.1-12.3 9.3-24.8 9.6-37.6h64.9m20-18H463.4c4 16.1 2.1 32-5.7 47.5-7.8 15.5-20.3 28.6-37.7 39.3h191.6c-17.4-10.7-30-23.8-37.7-39.3-7.7-15.5-9.6-31.3-5.6-47.5z" p-id="3037"></path><path d="M212.1 581.9h607.5V647c0 24-18.8 43.4-41.9 43.4H254c-23.1 0-41.9-19.4-41.9-43.4v-65.1z" fill="#99E5E2" p-id="3038"></path><path d="M801.6 599.8V647c0 14-10.7 25.4-24 25.4H254c-13.2 0-24-11.4-24-25.4v-47.1h571.6m18-18H212.1V647c0 24 18.8 43.4 41.9 43.4h523.7c23.1 0 41.9-19.4 41.9-43.4v-65.1z" p-id="3039"></path><path d="M515.8 636.4m-22.3 0a22.3 22.3 0 1 0 44.6 0 22.3 22.3 0 1 0-44.6 0Z" fill="#FF9999" p-id="3040"></path><path d="M515.8 664.6c-15.5 0-28.2-12.6-28.2-28.2s12.6-28.2 28.2-28.2 28.2 12.6 28.2 28.2-12.6 28.2-28.2 28.2z m0-44.6c-9 0-16.3 7.3-16.3 16.3s7.3 16.3 16.3 16.3 16.3-7.3 16.3-16.3-7.3-16.3-16.3-16.3zM636.4 764.2H395.3c-6.5 0-11.7-5.2-11.7-11.7 0-6.5 5.2-11.7 11.7-11.7h241.1c6.5 0 11.7 5.2 11.7 11.7 0 6.4-5.2 11.7-11.7 11.7zM624.7 420.6c-2.3 0-4.6-0.9-6.2-2.7-27.3-29.7-65.9-46.7-106.1-46.7-37.2 0-72.5 14.2-99.5 39.9-3.4 3.2-8.7 3.1-12-0.3-3.2-3.4-3.1-8.7 0.3-12 30.1-28.8 69.6-44.6 111.2-44.6 44.9 0 88.1 19 118.6 52.2 3.2 3.4 2.9 8.8-0.5 12-1.7 1.4-3.8 2.2-5.8 2.2z" p-id="3041"></path><path d="M589.2 454.8c-2.3 0-4.7-1-6.4-2.9-17.8-20.2-43.5-31.9-70.5-31.9-24.8 0-48.2 9.6-65.9 27.1-3.3 3.3-8.7 3.2-12-0.1-3.3-3.3-3.2-8.7 0.1-12 20.9-20.6 48.5-32 77.8-32 31.8 0 62.1 13.7 83.2 37.7 3.1 3.5 2.8 8.9-0.8 11.9-1.5 1.5-3.5 2.2-5.5 2.2z" p-id="3042"></path><path d="M553.3 488.9c-2.5 0-5-1.1-6.6-3.2-8.4-10.6-20.9-16.6-34.3-16.6-12.7 0-24.7 5.5-33.1 15.1-3.1 3.5-8.4 3.9-11.9 0.8-3.5-3.1-3.9-8.4-0.8-11.9 11.5-13.3 28.3-20.9 45.8-20.9 18.6 0 36 8.4 47.6 23 2.9 3.7 2.3 9-1.4 11.9-1.6 1.2-3.4 1.8-5.3 1.8z" p-id="3043"></path><path d="M512.9 512.1m-11.3 0a11.3 11.3 0 1 0 22.6 0 11.3 11.3 0 1 0-22.6 0Z" p-id="3044"></path></svg>