<?xml version="1.0" standalone="no"?><!DOCTYPE svg PUBLIC "-//W3C//DTD SVG 1.1//EN" "http://www.w3.org/Graphics/SVG/1.1/DTD/svg11.dtd"><svg t="1621691318683" class="icon" viewBox="0 0 1024 1024" version="1.1" xmlns="http://www.w3.org/2000/svg" p-id="2887" xmlns:xlink="http://www.w3.org/1999/xlink" width="200" height="200"><defs><style type="text/css"></style></defs><path d="M703.9 829.6H305.6c-28.3 0-51.2-22.9-51.2-51.2V261c0-28.3 22.9-51.2 51.2-51.2h398.3c28.3 0 51.2 22.9 51.2 51.2v517.3c0 28.3-22.9 51.3-51.2 51.3z" fill="#99E5E2" p-id="2888"></path><path d="M703.9 225.9c19.4 0 35.1 15.7 35.1 35.1v517.3c0 19.4-15.7 35.1-35.1 35.1H305.6c-19.4 0-35.1-15.7-35.1-35.1V261c0-19.4 15.7-35.1 35.1-35.1h398.3m0-16.1H305.6c-28.3 0-51.2 22.9-51.2 51.2v517.3c0 28.3 22.9 51.2 51.2 51.2h398.3c28.3 0 51.2-22.9 51.2-51.2V261c0-28.3-22.9-51.2-51.2-51.2z" p-id="2889"></path><path d="M666.3 742H413.1c-61.3 0-111-49.7-111-111V290.5c0-22.7 18.4-41.1 41.1-41.1h323.2c22.7 0 41.1 18.4 41.1 41.1v410.4c-0.1 22.7-18.5 41.1-41.2 41.1z" fill="#FFFFFF" p-id="2890"></path><path d="M666.3 265.4c13.9 0 25.2 11.3 25.2 25.2V701c0 13.9-11.3 25.2-25.2 25.2H413.1c-52.4 0-95.1-42.6-95.1-95.1V290.5c0-13.9 11.3-25.2 25.2-25.2h323.1m0-15.9H343.2c-22.7 0-41.1 18.4-41.1 41.1V631c0 61.3 49.7 111 111 111h253.3c22.7 0 41.1-18.4 41.1-41.1V290.5c-0.1-22.7-18.5-41.1-41.2-41.1z" p-id="2891"></path><path d="M669.8 207.3c-4.2-25.4-26.1-44.7-52.5-44.7-18.5 0-34.8 9.5-44.4 23.9-9.5-28-35.8-48.1-66.9-48.1-32.1 0-59.1 21.4-67.7 50.8-9.2-15.9-26.4-26.5-46-26.5-26.5 0-48.4 19.4-52.5 44.7-0.5 1.5-0.8 3.1-0.8 4.8v34c0 9.4 7.6 17 17 17h297.7c9.4 0 17-7.6 17-17v-34c-0.2-1.7-0.5-3.3-0.9-4.9z" fill="#FF9999" p-id="2892"></path><path d="M506 154.5c23.3 0 44.1 14.9 51.6 37.1 2 5.8 7.1 10 13.2 10.8 0.7 0.1 1.4 0.1 2.1 0.1 5.4 0 10.4-2.7 13.4-7.2 6.9-10.4 18.5-16.7 30.9-16.7 18.2 0 33.6 13.1 36.6 31.2 0.1 0.7 0.3 1.3 0.4 2 0.1 0.2 0.1 0.3 0.1 0.4v33.9c0 0.5-0.4 0.9-0.8 0.9H355.9c-0.4 0-0.8-0.4-0.8-0.9v-33.9c0-0.1 0-0.2 0.1-0.4 0.2-0.6 0.3-1.3 0.4-2 3-18.1 18.4-31.2 36.6-31.2 13.1 0 25.4 7.1 32.1 18.5 2.9 5 8.2 8 13.9 8 0.6 0 1.3 0 2-0.1 6.4-0.8 11.7-5.3 13.5-11.5 3.3-11.1 10.1-21.1 19.4-28.1 9.5-7 20.9-10.9 32.9-10.9m0-16.1c-32.1 0-59.1 21.4-67.7 50.8-9.2-15.9-26.4-26.5-46-26.5-26.5 0-48.4 19.4-52.5 44.7-0.5 1.5-0.8 3.1-0.8 4.8v34c0 9.4 7.6 17 17 17h297.7c9.4 0 17-7.6 17-17v-34c0-1.7-0.3-3.3-0.8-4.8-4.2-25.4-26.1-44.7-52.5-44.7-18.5 0-34.8 9.5-44.4 23.9-9.6-28.1-35.9-48.2-67-48.2z" p-id="2893"></path><path d="M403.4 741.8v0.1H748c19 0 34.5-16.6 34.5-37.1s-15.4-37.1-34.5-37.1l-302.2-0.6c-7.2 0-12.4 7-10.2 13.8 8 24.4-5.8 50.8-32.2 60.9z" fill="#FFFFFF" p-id="2894"></path><path d="M452.6 683.2l295.4 0.6c10.2 0 18.5 9.5 18.5 21.2s-8.3 21.2-18.5 21.2H445.6c7.3-13 10.1-28 7-43m-6.8-16c-7.2 0-12.4 7-10.1 13.8 7.9 24.3-5.8 50.8-32.3 60.8v0.1H748c19 0 34.5-16.6 34.5-37.1s-15.5-37-34.5-37l-302.2-0.6z" p-id="2895"></path><path d="M542.9 475.3H370.1c-7.1 0-12.8-5.7-12.8-12.8v-18.3c0-7.1 5.7-12.8 12.8-12.8h172.8c7.1 0 12.8 5.7 12.8 12.8v18.3c-0.1 7.1-5.8 12.8-12.8 12.8zM543.2 384.3H369.7c-6.9 0-12.4-5.6-12.4-12.4v-19c0-6.9 5.6-12.4 12.4-12.4h173.5c6.9 0 12.4 5.6 12.4 12.4v19c0 6.8-5.5 12.4-12.4 12.4zM607.7 566.4H372.1c-8.2 0-14.8-6.6-14.8-14.8v-14.3c0-8.2 6.6-14.8 14.8-14.8h235.7c8.2 0 14.8 6.6 14.8 14.8v14.3c-0.1 8.2-6.7 14.8-14.9 14.8z" opacity=".05" p-id="2896"></path></svg>