<?xml version="1.0" standalone="no"?><!DOCTYPE svg PUBLIC "-//W3C//DTD SVG 1.1//EN" "http://www.w3.org/Graphics/SVG/1.1/DTD/svg11.dtd"><svg t="1621691328182" class="icon" viewBox="0 0 1024 1024" version="1.1" xmlns="http://www.w3.org/2000/svg" p-id="3330" xmlns:xlink="http://www.w3.org/1999/xlink" width="200" height="200"><defs><style type="text/css"></style></defs><path d="M261.8 275.1l383.1-64c23-3.8 44.8 11.7 48.6 34.7l79.3 474.7c3.8 23-11.7 44.8-34.7 48.6L355 833c-23 3.8-44.8-11.7-48.6-34.7l-79.3-474.7c-3.8-22.9 11.7-44.7 34.7-48.5z" fill="#99E5E2" p-id="3331"></path><path d="M651.9 229.6c11.3 0 20.9 8.1 22.8 19.4L754 723.6c1 6.1-0.4 12.2-4 17.3-3.6 5-8.9 8.4-15 9.4l-383.1 64c-1.3 0.2-2.6 0.3-3.9 0.3-11.3 0-20.9-8.1-22.8-19.4l-79.3-474.7c-1-6.1 0.4-12.2 4-17.3 3.6-5 8.9-8.4 15-9.4l383.1-64c1.3-0.1 2.6-0.2 3.9-0.2m0-19.1c-2.3 0-4.7 0.2-7 0.6l-383.1 64c-23 3.8-38.5 25.6-34.7 48.6l79.3 474.7c3.4 20.6 21.3 35.3 41.6 35.3 2.3 0 4.7-0.2 7-0.6l383.1-64c23-3.8 38.5-25.6 34.7-48.6l-79.3-474.7c-3.5-20.6-21.4-35.3-41.6-35.3z" p-id="3332"></path><path d="M367.5 197.1h388.4c23.3 0 42.2 18.9 42.2 42.2v481.3c0 23.3-18.9 42.2-42.2 42.2H367.5c-23.3 0-42.2-18.9-42.2-42.2V239.3c0-23.3 18.9-42.2 42.2-42.2z" fill="#FFFFFF" p-id="3333"></path><path d="M755.9 215.9c12.9 0 23.4 10.5 23.4 23.4v481.3c0 12.9-10.5 23.4-23.4 23.4H367.5c-12.9 0-23.4-10.5-23.4-23.4V239.3c0-12.9 10.5-23.4 23.4-23.4h388.4m0-18.8H367.5c-23.3 0-42.2 18.9-42.2 42.2v481.3c0 23.3 18.9 42.2 42.2 42.2h388.4c23.3 0 42.2-18.9 42.2-42.2V239.3c0-23.3-18.9-42.2-42.2-42.2z" p-id="3334"></path><path d="M366.6 753.8c-15.8 0-26.1-16.7-19-30.8l70.8-140.1c5.9-7.4 16.7-8.8 24.2-3 0.7 0.6 1.4 1.2 2.1 1.9l68.8 73.7c6.5 6.9 17.4 7.4 24.4 1 1.3-1.2 2.5-2.6 3.3-4.2l96-168.5c4.7-8.2 15.2-11.1 23.5-6.5 2.5 1.4 4.7 3.4 6.2 5.9 66.3 105.4 99.3 194.8 113.5 239.6 4.8 15.1-6.6 30.6-22.5 30.6l-391.3 0.4z" fill="#99E5E2" p-id="3335"></path><path d="M366.6 763.3c-10.8 0-20.5-5.5-26.2-14.6-5.6-9.2-6.1-20.4-1.3-30l71.2-141 0.6-0.8c9.1-11.5 25.9-13.6 37.5-4.6 1.2 0.9 2.3 1.9 3.2 3l68.8 73.7c2.9 3.1 7.9 3.3 11 0.4 0.6-0.5 1.1-1.2 1.5-1.8l96-168.5c7.2-12.7 23.6-17.2 36.4-10.1 3.9 2.2 7.3 5.3 9.7 9.1C741.5 583.8 775.3 675 789.6 719.9c3.2 10.1 1.4 20.8-4.8 29.4-6.3 8.6-16 13.6-26.7 13.6l-391.5 0.4z m59.8-175.1l-70.3 139.1c-1.9 3.7-1.7 7.9 0.5 11.4s5.8 5.6 10 5.6l391.4-0.4c4.5 0 8.7-2.1 11.4-5.8 2.6-3.6 3.4-8.1 2-12.4-14-44.1-47.2-133.5-112.5-237.4-0.7-1.1-1.6-2-2.8-2.6-3.8-2.1-8.5-0.8-10.6 2.9l-96 168.5c-1.4 2.4-3.1 4.6-5.2 6.5-10.8 9.9-27.8 9.2-37.8-1.5l-68.8-73.7c-0.3-0.3-0.6-0.6-0.9-0.8-3.1-2.6-7.6-2.2-10.4 0.6z" p-id="3336"></path><path d="M456.2 412.4m-42.2 0a42.2 42.2 0 1 0 84.4 0 42.2 42.2 0 1 0-84.4 0Z" fill="#FF9999" p-id="3337"></path><path d="M456.2 381.6c17 0 30.9 13.8 30.9 30.9s-13.8 30.9-30.9 30.9-30.9-13.8-30.9-30.9 13.9-30.9 30.9-30.9m0-11.4c-23.3 0-42.2 18.9-42.2 42.2 0 23.3 18.9 42.2 42.2 42.2 23.3 0 42.2-18.9 42.2-42.2 0-23.3-18.9-42.2-42.2-42.2z" p-id="3338"></path></svg>