<?xml version="1.0" standalone="no"?><!DOCTYPE svg PUBLIC "-//W3C//DTD SVG 1.1//EN" "http://www.w3.org/Graphics/SVG/1.1/DTD/svg11.dtd"><svg t="1621691267629" class="icon" viewBox="0 0 1024 1024" version="1.1" xmlns="http://www.w3.org/2000/svg" p-id="1100" xmlns:xlink="http://www.w3.org/1999/xlink" width="200" height="200"><defs><style type="text/css"></style></defs><path d="M513 341.5m-147.9 0a147.9 147.9 0 1 0 295.8 0 147.9 147.9 0 1 0-295.8 0Z" fill="#FFFFFF" p-id="1101"></path><path d="M513 214.3c34 0 65.9 13.2 89.9 37.3 24 24 37.3 56 37.3 89.9s-13.2 65.9-37.2 90c-24 24-56 37.3-89.9 37.3s-65.9-13.2-89.9-37.3c-24-24-37.3-56-37.3-89.9s13.2-65.9 37.3-89.9c23.9-24.1 55.8-37.4 89.8-37.4m0-20.7c-81.7 0-147.9 66.2-147.9 147.9S431.3 489.4 513 489.4s147.9-66.2 147.9-147.9S594.7 193.6 513 193.6z" p-id="1102"></path><path d="M689 810.6H337c-73.8 0-133.6-59.8-133.6-133.6S263.2 543.4 337 543.4h352c73.8 0 133.6 59.8 133.6 133.6S762.8 810.6 689 810.6z" fill="#99E5E2" p-id="1103"></path><path d="M689 564.4c30.1 0 58.3 11.7 79.6 33 21.3 21.3 33 49.5 33 79.6 0 30.1-11.7 58.3-33 79.6-21.3 21.3-49.5 33-79.6 33H337c-30.1 0-58.3-11.7-79.6-33-21.3-21.3-33-49.5-33-79.6s11.7-58.3 33-79.6c21.3-21.3 49.5-33 79.6-33h352m0-21H337c-73.8 0-133.6 59.8-133.6 133.6S263.2 810.6 337 810.6h352c73.8 0 133.6-59.8 133.6-133.6S762.8 543.4 689 543.4z" p-id="1104"></path><path d="M513 732.1c-17.5 0-31.6-14.2-31.6-31.6V543.4h63.2v157.1c0 17.5-14.1 31.6-31.6 31.6z" fill="#FF9999" p-id="1105"></path><path d="M523.9 564.1v136.4c0 6-4.9 10.9-10.9 10.9s-10.9-4.9-10.9-10.9V564.1h21.8m20.7-20.7h-63.2v157.1c0 17.5 14.2 31.6 31.6 31.6 17.5 0 31.6-14.2 31.6-31.6V543.4z" p-id="1106"></path></svg>