<?xml version="1.0" standalone="no"?><!DOCTYPE svg PUBLIC "-//W3C//DTD SVG 1.1//EN" "http://www.w3.org/Graphics/SVG/1.1/DTD/svg11.dtd"><svg t="1621691296909" class="icon" viewBox="0 0 1024 1024" version="1.1" xmlns="http://www.w3.org/2000/svg" p-id="1981" xmlns:xlink="http://www.w3.org/1999/xlink" width="200" height="200"><defs><style type="text/css"></style></defs><path d="M469.3 793.7H305.6c-18.6 0-33.6-15-33.6-33.6V575.3c34.5 8.1 70.8 0.2 98.7-21.6 20.5 16 45.8 24.7 71.8 24.7s51.3-8.7 71.8-24.7c20.5 16 45.8 24.7 71.8 24.7 31.3 0 59.8-12.4 80.7-32.5 23.9 23 56.6 34.7 89.7 32.1v182c0 18.6-15 33.6-33.6 33.6H559.2l-89.9 0.1z" fill="#FFFFFF" p-id="1982"></path><path d="M722.7 802.3H305.6c-11.3 0-21.9-4.4-29.9-12.4s-12.4-18.6-12.4-29.9V575.2c0-2.6 1.2-5.1 3.3-6.8 2.1-1.6 4.8-2.2 7.4-1.6 32.1 7.6 65.4 0.3 91.4-20 3.1-2.4 7.5-2.4 10.6 0 18.8 14.7 42.3 22.8 66.2 22.8h0.3c23.9 0 47.4-8.1 66.3-22.8 3.1-2.5 7.5-2.5 10.7 0 18.8 14.7 42.3 22.8 66.2 22.8h0.2c28 0 54.6-10.7 74.8-30.1a8.7 8.7 0 0 1 12 0c22.1 21.3 52.4 32.2 83 29.7 2.4-0.2 4.8 0.6 6.6 2.3s2.8 3.9 2.8 6.4v182c0 11.3-4.4 21.9-12.4 29.9-8.1 8.1-18.7 12.5-30 12.5zM469.3 785H722.7c6.7 0 12.9-2.6 17.6-7.3 4.7-4.7 7.3-11 7.3-17.6v-173h-0.4c-29.5 0-58.1-10.5-80.6-29.5-22.6 19.1-50.9 29.5-80.7 29.5h-0.2c-25.5 0-50.7-8-71.6-22.6-20.9 14.6-46 22.6-71.6 22.6h-0.4c-25.5 0-50.7-8-71.6-22.6-26.3 18.4-58.4 25.9-90 21.3v174.3c0 6.7 2.6 12.9 7.3 17.6 4.7 4.7 11 7.3 17.6 7.3h163.9z" p-id="1983"></path><path d="M685.2 219.6c19 0 36.5 10 46.2 26.3L817 389.6h-0.2c23.2 45.9 4.9 101.9-41 125.1-38 19.2-84.1 10.3-112.1-21.7-19.2 20.3-45.9 31.9-73.8 31.8-29.2 0-56.9-12.5-76.2-34.4-19.3 21.9-47 34.4-76.2 34.4-27.9 0-54.6-11.5-73.8-31.8-33.9 38.6-92.8 42.4-131.4 8.5-34.8-30.6-41.8-82.2-16.4-121l72-132.7c9.4-17.4 27.6-28.2 47.3-28.2h350z" fill="#99E5E2" p-id="1984"></path><path d="M685.2 237.1c12.7 0 24.7 6.8 31.2 17.7l83.8 140.6 1 2c18.8 37.2 3.9 82.7-33.3 101.6-10.5 5.3-22.3 8.2-34.1 8.2-21.8 0-42.6-9.4-56.9-25.8l-12.7-14.5L651 481c-15.7 16.7-37.9 26.3-60.9 26.3H589.8c-24.1 0-47-10.4-62.9-28.4l-13.2-15-13.2 15c-15.9 18.1-38.8 28.4-62.9 28.4h-0.2c-23 0-45.2-9.6-60.9-26.3l-13.2-14-12.7 14.5c-14.3 16.3-35.1 25.7-56.8 25.7-18.3 0-36-6.7-49.8-18.8-13.7-12-22.6-28.6-25-46.6-2.4-18 1.7-36.4 11.7-51.6l0.4-0.6 0.3-0.6 72-132.7c6.4-11.7 18.6-19 31.9-19h349.9m0-17.7h-350c-19.7 0-37.9 10.8-47.3 28.2l-72 132.7c-25.4 38.8-18.4 90.4 16.4 121 17.7 15.5 39.6 23.2 61.4 23.2 25.9 0 51.6-10.7 70-31.7 19.1 20.3 45.8 31.8 73.7 31.8h0.2c29.1 0 56.8-12.5 76.1-34.4 19.2 21.9 46.9 34.4 76.1 34.4H590.1c27.9 0 54.5-11.5 73.6-31.8 18.1 20.7 43.9 31.8 70.1 31.8 14.3 0 28.7-3.3 42-10.1 45.9-23.2 64.2-79.3 41-125.1h0.2l-85.6-143.7c-9.7-16.3-27.3-26.3-46.2-26.3z" p-id="1985"></path><path d="M555.9 802.1h-83.6c-10.3 0-18.7-8.4-18.7-18.7v-135c0-10.3 8.4-18.7 18.7-18.7h83.6c10.3 0 18.7 8.4 18.7 18.7v134.9c0.1 10.4-8.3 18.8-18.7 18.8z" fill="#FF9999" p-id="1986"></path><path d="M555.9 647c0.8 0 1.4 0.6 1.4 1.4v134.9c0 0.8-0.6 1.4-1.4 1.4h-83.6c-0.8 0-1.4-0.6-1.4-1.4V648.4c0-0.8 0.6-1.4 1.4-1.4h83.6m0-17.3h-83.6c-10.3 0-18.7 8.4-18.7 18.7v134.9c0 10.3 8.4 18.7 18.7 18.7h83.6c10.3 0 18.7-8.4 18.7-18.7V648.4c0.1-10.3-8.3-18.7-18.7-18.7z" p-id="1987"></path></svg>