<?xml version="1.0" standalone="no"?><!DOCTYPE svg PUBLIC "-//W3C//DTD SVG 1.1//EN" "http://www.w3.org/Graphics/SVG/1.1/DTD/svg11.dtd"><svg t="1621691348238" class="icon" viewBox="0 0 1024 1024" version="1.1" xmlns="http://www.w3.org/2000/svg" p-id="4218" xmlns:xlink="http://www.w3.org/1999/xlink" width="200" height="200"><defs><style type="text/css"></style></defs><path d="M714.2 817.8h-401c-15.9 0-28.9-12.9-28.9-28.9V253.2c0-15.9 12.9-28.9 28.9-28.9h401c15.9 0 28.9 12.9 28.9 28.9V789c0 15.9-12.9 28.8-28.9 28.8z" fill="#99E5E2" p-id="4219"></path><path d="M714.2 240.7c6.9 0 12.6 5.6 12.6 12.6V789c0 6.9-5.6 12.6-12.6 12.6h-401c-6.9 0-12.6-5.6-12.6-12.6V253.2c0-6.9 5.6-12.6 12.6-12.6h401m0-16.3h-401c-15.9 0-28.9 12.9-28.9 28.9V789c0 15.9 12.9 28.9 28.9 28.9h401c15.9 0 28.9-12.9 28.9-28.9V253.2c0-15.9-12.9-28.9-28.9-28.9z" p-id="4220"></path><path d="M322.8 761.7V280.5c0-9.7 7.9-17.6 17.6-17.6h346.5c9.7 0 17.6 7.9 17.6 17.6v481.2c0 9.7-7.9 17.6-17.6 17.6H340.5c-9.8 0-17.7-7.9-17.7-17.6z" fill="#FFFFFF" p-id="4221"></path><path d="M686.9 784.2H340.5c-12.4 0-22.5-10.1-22.5-22.5V280.5c0-12.4 10.1-22.5 22.5-22.5H687c12.4 0 22.5 10.1 22.5 22.5v481.2c-0.1 12.4-10.2 22.5-22.6 22.5zM340.5 267.7c-7 0-12.8 5.7-12.8 12.8v481.2c0 7 5.7 12.8 12.8 12.8H687c7 0 12.8-5.7 12.8-12.8V280.5c0-7-5.7-12.8-12.8-12.8H340.5z" p-id="4222"></path><path d="M502.5 355.9H369.3c-5.3 0-9.6-4.3-9.6-9.6V319c0-5.3 4.3-9.6 9.6-9.6h133.1c5.3 0 9.6 4.3 9.6 9.6v27.3c0.1 5.3-4.2 9.6-9.5 9.6z" opacity=".05" p-id="4223"></path><path d="M433.9 408h-69c-2.9 0-5.2-2.3-5.2-5.2V390c0-2.9 2.3-5.2 5.2-5.2h69c2.9 0 5.2 2.3 5.2 5.2v12.8c0 2.9-2.3 5.2-5.2 5.2z" fill="#FF9999" p-id="4224"></path><path d="M433.9 460.1h-69c-2.9 0-5.2-2.3-5.2-5.2V442c0-2.9 2.3-5.2 5.2-5.2h69c2.9 0 5.2 2.3 5.2 5.2v12.9c0 2.9-2.3 5.2-5.2 5.2z" opacity=".05" p-id="4225"></path><path d="M652.7 590.3l-88.6 99.6-56.9-50.7-25.3 28.5 56.9 50.6 28.4 25.3 114-127.9z" fill="#99E5E2" p-id="4226"></path><path d="M502.5 548.4H369.3c-5.3 0-9.6-4.3-9.6-9.6v-27.3c0-5.3 4.3-9.6 9.6-9.6h133.1c5.3 0 9.6 4.3 9.6 9.6v27.3c0.1 5.3-4.2 9.6-9.5 9.6zM433.9 600.5h-69c-2.9 0-5.2-2.3-5.2-5.2v-12.9c0-2.9 2.3-5.2 5.2-5.2h69c2.9 0 5.2 2.3 5.2 5.2v12.9c0 2.9-2.3 5.2-5.2 5.2zM433.9 652.6h-69c-2.9 0-5.2-2.3-5.2-5.2v-12.9c0-2.9 2.3-5.2 5.2-5.2h69c2.9 0 5.2 2.3 5.2 5.2v12.9c0 2.9-2.3 5.2-5.2 5.2z" opacity=".05" p-id="4227"></path></svg>