<?xml version="1.0" standalone="no"?><!DOCTYPE svg PUBLIC "-//W3C//DTD SVG 1.1//EN" "http://www.w3.org/Graphics/SVG/1.1/DTD/svg11.dtd"><svg t="1621691238020" class="icon" viewBox="0 0 1024 1024" version="1.1" xmlns="http://www.w3.org/2000/svg" p-id="952" xmlns:xlink="http://www.w3.org/1999/xlink" width="200" height="200"><defs><style type="text/css"></style></defs><path d="M346.7 385.7c-5.9 5.9-15.5 5.9-21.4 0l-108-108.1c-5.9-5.9-5.9-15.5 0-21.4 5.9-5.9 15.5-5.9 21.4 0l108.1 108.1c5.8 5.9 5.8 15.5-0.1 21.4z" p-id="953"></path><path d="M365.4 282.8c6-6 5.5-16.1-1.4-21.2-40.9-30-98.7-26.6-135.7 10.4s-40.5 94.8-10.4 135.7c5 6.9 15.2 7.4 21.2 1.4l126.3-126.3z" fill="#FF9999" p-id="954"></path><path d="M302.2 252.3c20.1 0 39.2 6.3 55.3 18.1 0.8 0.6 1.1 1.5 1.1 2.1 0 0.5 0 1.7-1 2.7L231.4 401.4c-0.9 0.9-1.9 1-2.4 1-0.6 0-1.6-0.1-2.3-1.1-13.1-17.8-19.4-39.9-17.8-62.1 1.6-22.4 11.3-43.6 27.2-59.5 17.6-17.7 41.1-27.4 66.1-27.4m0-10.9c-26.8 0-53.5 10.2-73.9 30.6-37 37-40.5 94.8-10.4 135.7 2.7 3.7 6.9 5.5 11.1 5.5 3.6 0 7.3-1.4 10.1-4.2l126.3-126.3c6-6 5.5-16.1-1.4-21.2-18.3-13.4-40-20.1-61.8-20.1zM675.1 385.7c5.9 5.9 15.5 5.9 21.4 0l108.1-108.1c5.9-5.9 5.9-15.5 0-21.4-5.9-5.9-15.5-5.9-21.4 0L675.1 364.3c-5.9 5.9-5.9 15.5 0 21.4z" p-id="955"></path><path d="M656.4 282.8c-6-6-5.5-16.1 1.4-21.2 40.9-30 98.7-26.6 135.7 10.4 37 37 40.5 94.8 10.4 135.7-5 6.9-15.2 7.4-21.2 1.4L656.4 282.8z" fill="#FF9999" p-id="956"></path><path d="M719.6 252.3c25 0 48.5 9.7 66.2 27.4 15.9 15.9 25.6 37 27.2 59.5 1.6 22.2-4.7 44.3-17.8 62.1-0.7 1-1.8 1.1-2.3 1.1-0.5 0-1.5-0.1-2.4-1L664.1 275.1c-1-1-1-2.2-1-2.7 0-0.6 0.3-1.5 1.1-2.1 16.1-11.8 35.2-18 55.4-18m0-10.9c-21.7 0-43.4 6.7-61.8 20.2-6.9 5-7.4 15.2-1.4 21.2l126.3 126.3c2.8 2.8 6.4 4.2 10.1 4.2 4.2 0 8.4-1.9 11.1-5.5 30-40.9 26.6-98.7-10.4-135.7-20.5-20.5-47.2-30.7-73.9-30.7z" p-id="957"></path><path d="M510.6 529.4m-268.3 0a268.3 268.3 0 1 0 536.6 0 268.3 268.3 0 1 0-536.6 0Z" fill="#99E5E2" p-id="958"></path><path d="M510.6 279.4c33.7 0 66.5 6.6 97.3 19.6 29.8 12.6 56.5 30.6 79.4 53.6 23 23 41 49.7 53.6 79.4 13 30.8 19.6 63.5 19.6 97.3s-6.6 66.5-19.6 97.3c-12.6 29.8-30.6 56.5-53.6 79.4-23 23-49.7 41-79.4 53.6-30.8 13-63.5 19.6-97.3 19.6s-66.5-6.6-97.3-19.6C383.5 747 356.8 729 333.9 706c-23-23-41-49.7-53.6-79.4-13-30.8-19.6-63.5-19.6-97.3s6.6-66.5 19.6-97.3c12.6-29.8 30.6-56.5 53.6-79.4 23-23 49.7-41 79.4-53.6 30.8-12.9 63.5-19.6 97.3-19.6m0-18.4c-148.2 0-268.3 120.1-268.3 268.3s120.1 268.3 268.3 268.3 268.3-120.1 268.3-268.3S658.8 261 510.6 261z" p-id="959"></path><path d="M505.7 547.3c-8.8 0-16-7.2-16-16V378.1c0-8.8 7.2-16 16-16s16 7.2 16 16v153.2c0 8.8-7.2 16-16 16z" fill="#FFFFFF" p-id="960"></path><path d="M491.4 524c3.9-7.7 13.5-10.9 21.2-7l84.1 42.4c7.7 3.9 10.9 13.5 7 21.2-3.9 7.7-13.5 10.9-21.2 7l-84.1-42.4c-7.7-3.9-10.9-13.4-7-21.2z" fill="#FFFFFF" p-id="961"></path></svg>